<mxfile host="Electron" modified="2023-11-13T01:56:00.601Z" agent="Mozilla/5.0 (Macintosh; Intel Mac OS X 10_15_7) AppleWebKit/537.36 (KHTML, like Gecko) draw.io/21.3.7 Chrome/112.0.5615.204 Electron/24.5.0 Safari/537.36" etag="OG3E3D5cIFKd5QLCci8H" version="21.3.7" type="device">
  <diagram name="Regional Network Design" id="GZFhmZe98ZdrKT_3Apcn">
    <mxGraphModel dx="3407" dy="1553" grid="0" gridSize="10" guides="1" tooltips="1" connect="1" arrows="1" fold="1" page="0" pageScale="1" pageWidth="827" pageHeight="1169" background="#ffffff" math="0" shadow="0">
      <root>
        <mxCell id="aqYKtT-z00j4YyioXfuS-0" />
        <mxCell id="aqYKtT-z00j4YyioXfuS-1" parent="aqYKtT-z00j4YyioXfuS-0" />
        <mxCell id="c2jrxfSJ30ph8Sp1wg5w-22" value="" style="rounded=0;whiteSpace=wrap;html=1;shadow=0;labelBackgroundColor=none;sketch=0;strokeColor=#000000;strokeWidth=3;fontSize=16;fontColor=#330000;fillColor=none;opacity=70;dashed=1;dashPattern=1 1;" parent="aqYKtT-z00j4YyioXfuS-1" vertex="1">
          <mxGeometry x="768.75" y="323" width="1040" height="690" as="geometry" />
        </mxCell>
        <mxCell id="aqYKtT-z00j4YyioXfuS-5" value="Network Account (us-east-1)" style="points=[[0,0],[0.25,0],[0.5,0],[0.75,0],[1,0],[1,0.25],[1,0.5],[1,0.75],[1,1],[0.75,1],[0.5,1],[0.25,1],[0,1],[0,0.75],[0,0.5],[0,0.25]];outlineConnect=0;gradientColor=none;html=1;whiteSpace=wrap;fontSize=12;fontStyle=0;shape=mxgraph.aws4.group;grIcon=mxgraph.aws4.group_aws_cloud;strokeColor=#232F3E;fillColor=none;verticalAlign=top;align=left;spacingLeft=30;fontColor=#232F3E;dashed=0;labelBackgroundColor=#ffffff;" parent="aqYKtT-z00j4YyioXfuS-1" vertex="1">
          <mxGeometry x="-248" y="406" width="935" height="1240" as="geometry" />
        </mxCell>
        <mxCell id="1VweFIOlZkuIM1G34YTw-29" value="" style="rounded=0;whiteSpace=wrap;html=1;shadow=0;labelBackgroundColor=none;sketch=0;strokeColor=#000000;strokeWidth=3;fontSize=16;fontColor=#330000;fillColor=none;opacity=70;dashed=1;dashPattern=1 1;" parent="aqYKtT-z00j4YyioXfuS-1" vertex="1">
          <mxGeometry x="770.75" y="1082" width="710.25" height="570" as="geometry" />
        </mxCell>
        <mxCell id="aqYKtT-z00j4YyioXfuS-17" style="edgeStyle=orthogonalEdgeStyle;rounded=0;orthogonalLoop=1;jettySize=auto;html=1;strokeColor=#000000;strokeWidth=3;fontSize=14;fontColor=#330000;endArrow=classic;endFill=1;fillColor=#ffe6cc;exitX=0.5;exitY=0;exitDx=0;exitDy=0;entryX=0.504;entryY=0.97;entryDx=0;entryDy=0;entryPerimeter=0;" parent="aqYKtT-z00j4YyioXfuS-1" source="aqYKtT-z00j4YyioXfuS-18" target="TDstkuwxktSH631sSfCp-1" edge="1">
          <mxGeometry relative="1" as="geometry">
            <mxPoint x="-13.34" y="1141" as="targetPoint" />
          </mxGeometry>
        </mxCell>
        <mxCell id="VjTDC7WTQWD1o37_lHGb-6" value="&lt;font style=&quot;font-size: 14px;&quot;&gt;association&lt;/font&gt;" style="edgeLabel;html=1;align=center;verticalAlign=middle;resizable=0;points=[];" parent="aqYKtT-z00j4YyioXfuS-17" vertex="1" connectable="0">
          <mxGeometry x="-0.5868" relative="1" as="geometry">
            <mxPoint x="-2" y="-22" as="offset" />
          </mxGeometry>
        </mxCell>
        <mxCell id="aqYKtT-z00j4YyioXfuS-18" value="Centralized Inspection VPC" style="points=[[0,0],[0.25,0],[0.5,0],[0.75,0],[1,0],[1,0.25],[1,0.5],[1,0.75],[1,1],[0.75,1],[0.5,1],[0.25,1],[0,1],[0,0.75],[0,0.5],[0,0.25]];outlineConnect=0;gradientColor=none;html=1;whiteSpace=wrap;fontSize=12;fontStyle=0;shape=mxgraph.aws4.group;grIcon=mxgraph.aws4.group_vpc;fillColor=default;verticalAlign=top;align=left;spacingLeft=30;fontColor=#000000;dashed=0;strokeColor=#4D4D4D;" parent="aqYKtT-z00j4YyioXfuS-1" vertex="1">
          <mxGeometry x="-191" y="1382" width="390" height="215" as="geometry" />
        </mxCell>
        <mxCell id="aqYKtT-z00j4YyioXfuS-19" style="edgeStyle=none;rounded=0;orthogonalLoop=1;jettySize=auto;html=1;entryX=1;entryY=0.5;entryDx=0;entryDy=0;endArrow=classic;endFill=1;strokeColor=#000000;strokeWidth=3;fillColor=#ffe6cc;exitX=0;exitY=0.5;exitDx=0;exitDy=0;fontSize=16;fontColor=#330000;startArrow=none;startFill=0;" parent="aqYKtT-z00j4YyioXfuS-1" source="aqYKtT-z00j4YyioXfuS-18" target="aqYKtT-z00j4YyioXfuS-20" edge="1">
          <mxGeometry relative="1" as="geometry">
            <mxPoint x="-598.0500000000001" y="1485.0000000000005" as="sourcePoint" />
          </mxGeometry>
        </mxCell>
        <mxCell id="aqYKtT-z00j4YyioXfuS-20" value="Internet&lt;br style=&quot;font-size: 14px;&quot;&gt;(OUTBOUND)" style="aspect=fixed;perimeter=ellipsePerimeter;html=1;align=center;shadow=0;dashed=0;spacingTop=3;image;image=img/lib/active_directory/internet_cloud.svg;fontSize=14;" parent="aqYKtT-z00j4YyioXfuS-1" vertex="1">
          <mxGeometry x="-584.2999999999998" y="1434.5" width="174.6" height="110" as="geometry" />
        </mxCell>
        <mxCell id="aqYKtT-z00j4YyioXfuS-45" value="AWS&amp;nbsp;" style="points=[[0,0],[0.25,0],[0.5,0],[0.75,0],[1,0],[1,0.25],[1,0.5],[1,0.75],[1,1],[0.75,1],[0.5,1],[0.25,1],[0,1],[0,0.75],[0,0.5],[0,0.25]];outlineConnect=0;gradientColor=none;html=1;whiteSpace=wrap;fontSize=12;fontStyle=0;shape=mxgraph.aws4.group;grIcon=mxgraph.aws4.group_aws_cloud;strokeColor=#232F3E;verticalAlign=top;align=left;spacingLeft=30;fontColor=#232F3E;dashed=0;labelBackgroundColor=#ffffff;" parent="aqYKtT-z00j4YyioXfuS-1" vertex="1">
          <mxGeometry x="848.75" y="383.5" width="658.3" height="266" as="geometry" />
        </mxCell>
        <mxCell id="aqYKtT-z00j4YyioXfuS-46" value="AWS&amp;nbsp;" style="points=[[0,0],[0.25,0],[0.5,0],[0.75,0],[1,0],[1,0.25],[1,0.5],[1,0.75],[1,1],[0.75,1],[0.5,1],[0.25,1],[0,1],[0,0.75],[0,0.5],[0,0.25]];outlineConnect=0;gradientColor=none;html=1;whiteSpace=wrap;fontSize=12;fontStyle=0;shape=mxgraph.aws4.group;grIcon=mxgraph.aws4.group_aws_cloud;strokeColor=#232F3E;verticalAlign=top;align=left;spacingLeft=30;fontColor=#232F3E;dashed=0;labelBackgroundColor=#ffffff;" parent="aqYKtT-z00j4YyioXfuS-1" vertex="1">
          <mxGeometry x="828.75" y="368.5" width="663.3" height="261" as="geometry" />
        </mxCell>
        <mxCell id="aqYKtT-z00j4YyioXfuS-47" value="Prod Spoke Account" style="points=[[0,0],[0.25,0],[0.5,0],[0.75,0],[1,0],[1,0.25],[1,0.5],[1,0.75],[1,1],[0.75,1],[0.5,1],[0.25,1],[0,1],[0,0.75],[0,0.5],[0,0.25]];outlineConnect=0;gradientColor=none;html=1;whiteSpace=wrap;fontSize=12;fontStyle=0;shape=mxgraph.aws4.group;grIcon=mxgraph.aws4.group_aws_cloud;strokeColor=#232F3E;verticalAlign=top;align=left;spacingLeft=30;fontColor=#232F3E;dashed=0;labelBackgroundColor=#ffffff;" parent="aqYKtT-z00j4YyioXfuS-1" vertex="1">
          <mxGeometry x="808.75" y="353" width="668.5" height="256.5" as="geometry" />
        </mxCell>
        <mxCell id="aqYKtT-z00j4YyioXfuS-48" value="&lt;font color=&quot;#000000&quot;&gt;VPC&lt;/font&gt;" style="points=[[0,0],[0.25,0],[0.5,0],[0.75,0],[1,0],[1,0.25],[1,0.5],[1,0.75],[1,1],[0.75,1],[0.5,1],[0.25,1],[0,1],[0,0.75],[0,0.5],[0,0.25]];outlineConnect=0;html=1;whiteSpace=wrap;fontSize=12;fontStyle=0;shape=mxgraph.aws4.group;grIcon=mxgraph.aws4.group_vpc;strokeColor=#000000;verticalAlign=top;align=left;spacingLeft=30;dashed=0;fillColor=none;fontColor=#AAB7B8;" parent="aqYKtT-z00j4YyioXfuS-1" vertex="1">
          <mxGeometry x="838.75" y="388" width="618.5" height="201.5" as="geometry" />
        </mxCell>
        <mxCell id="aqYKtT-z00j4YyioXfuS-53" value="Internet&lt;br style=&quot;font-size: 14px;&quot;&gt;(INBOUND)" style="aspect=fixed;perimeter=ellipsePerimeter;html=1;align=center;shadow=0;dashed=0;spacingTop=3;image;image=img/lib/active_directory/internet_cloud.svg;fontSize=14;" parent="aqYKtT-z00j4YyioXfuS-1" vertex="1">
          <mxGeometry x="-584.3000000000001" y="296" width="174.6" height="110" as="geometry" />
        </mxCell>
        <mxCell id="aqYKtT-z00j4YyioXfuS-152" value="AWS Network Firewall&lt;br&gt;(Inter-Region/Site and Egress Only)" style="rounded=0;whiteSpace=wrap;html=1;shadow=0;labelBackgroundColor=none;sketch=0;strokeColor=#000000;strokeWidth=1;fontSize=16;fontColor=#330000;fillColor=none;opacity=70;dashed=1;labelPosition=center;verticalLabelPosition=bottom;align=center;verticalAlign=top;" parent="aqYKtT-z00j4YyioXfuS-1" vertex="1">
          <mxGeometry x="-174.66999999999996" y="1422" width="357" height="125" as="geometry" />
        </mxCell>
        <mxCell id="c2jrxfSJ30ph8Sp1wg5w-66" style="edgeStyle=orthogonalEdgeStyle;shape=connector;rounded=0;orthogonalLoop=1;jettySize=auto;html=1;entryX=0;entryY=0.5;entryDx=0;entryDy=0;entryPerimeter=0;labelBackgroundColor=default;strokeColor=default;strokeWidth=3;fontFamily=Helvetica;fontSize=11;fontColor=default;endArrow=none;endFill=0;exitX=0.5;exitY=0;exitDx=0;exitDy=0;" parent="aqYKtT-z00j4YyioXfuS-1" source="aqYKtT-z00j4YyioXfuS-171" target="aqYKtT-z00j4YyioXfuS-57" edge="1">
          <mxGeometry relative="1" as="geometry">
            <Array as="points">
              <mxPoint x="3" y="976" />
            </Array>
          </mxGeometry>
        </mxCell>
        <mxCell id="aqYKtT-z00j4YyioXfuS-171" value="Firewall TGW Route Table" style="shape=table;startSize=30;container=1;collapsible=1;childLayout=tableLayout;fixedRows=1;rowLines=1;fontStyle=1;align=center;resizeLast=1;labelBackgroundColor=none;strokeColor=#3700CC;strokeWidth=1;fontSize=16;fillColor=#6a00ff;perimeterSpacing=0;rounded=0;shadow=0;sketch=0;swimlaneLine=1;swimlaneFillColor=none;right=1;left=1;columnLines=1;top=1;bottom=1;swimlaneHead=1;swimlaneBody=1;horizontal=1;opacity=70;fontColor=#ffffff;" parent="aqYKtT-z00j4YyioXfuS-1" vertex="1">
          <mxGeometry x="-148.48000000000002" y="1078" width="302.96" height="199" as="geometry">
            <mxRectangle x="380" y="210" width="80" height="30" as="alternateBounds" />
          </mxGeometry>
        </mxCell>
        <mxCell id="aqYKtT-z00j4YyioXfuS-172" value="" style="shape=tableRow;horizontal=0;startSize=0;swimlaneHead=0;swimlaneBody=0;fillColor=#FFFFFF;collapsible=0;dropTarget=0;points=[[0,0.5],[1,0.5]];portConstraint=eastwest;top=0;left=1;right=1;bottom=0;labelBackgroundColor=none;strokeColor=#000000;strokeWidth=1;fontSize=16;fontColor=#330000;" parent="aqYKtT-z00j4YyioXfuS-171" vertex="1">
          <mxGeometry y="30" width="302.96" height="37" as="geometry" />
        </mxCell>
        <mxCell id="aqYKtT-z00j4YyioXfuS-173" value="Destination" style="shape=partialRectangle;connectable=0;fillColor=#FFFFFF;top=0;left=1;bottom=1;right=1;fontStyle=1;overflow=hidden;labelBackgroundColor=none;strokeColor=#000000;strokeWidth=1;fontSize=16;fontColor=#330000;align=left;spacingLeft=5;" parent="aqYKtT-z00j4YyioXfuS-172" vertex="1">
          <mxGeometry width="155.42000000000007" height="37" as="geometry">
            <mxRectangle width="155.42000000000007" height="37" as="alternateBounds" />
          </mxGeometry>
        </mxCell>
        <mxCell id="aqYKtT-z00j4YyioXfuS-174" value="Target" style="shape=partialRectangle;connectable=0;fillColor=#FFFFFF;top=0;left=1;bottom=1;right=1;align=left;spacingLeft=5;fontStyle=1;overflow=hidden;labelBackgroundColor=none;strokeColor=#000000;strokeWidth=1;fontSize=16;fontColor=#330000;" parent="aqYKtT-z00j4YyioXfuS-172" vertex="1">
          <mxGeometry x="155.42000000000007" width="147.5399999999999" height="37" as="geometry">
            <mxRectangle width="147.5399999999999" height="37" as="alternateBounds" />
          </mxGeometry>
        </mxCell>
        <mxCell id="aqYKtT-z00j4YyioXfuS-178" value="" style="shape=tableRow;horizontal=0;startSize=0;swimlaneHead=0;swimlaneBody=0;fillColor=#FFFFFF;collapsible=0;dropTarget=0;points=[[0,0.5],[1,0.5]];portConstraint=eastwest;top=0;left=1;right=1;bottom=0;labelBackgroundColor=none;strokeColor=#000000;strokeWidth=1;fontSize=16;fontColor=#330000;" parent="aqYKtT-z00j4YyioXfuS-171" vertex="1">
          <mxGeometry y="67" width="302.96" height="33" as="geometry" />
        </mxCell>
        <mxCell id="aqYKtT-z00j4YyioXfuS-179" value="All Spoke VPCs" style="shape=partialRectangle;connectable=0;fillColor=#FFFFFF;top=0;left=1;bottom=1;right=1;editable=1;overflow=hidden;labelBackgroundColor=none;strokeColor=#000000;strokeWidth=1;fontSize=16;fontColor=#330000;align=left;spacingLeft=5;" parent="aqYKtT-z00j4YyioXfuS-178" vertex="1">
          <mxGeometry width="155.42000000000007" height="33" as="geometry">
            <mxRectangle width="155.42000000000007" height="33" as="alternateBounds" />
          </mxGeometry>
        </mxCell>
        <mxCell id="aqYKtT-z00j4YyioXfuS-180" value="Propagated" style="shape=partialRectangle;connectable=0;fillColor=#FFFFFF;top=0;left=1;bottom=1;right=1;align=left;spacingLeft=5;overflow=hidden;labelBackgroundColor=none;strokeColor=#000000;strokeWidth=1;fontSize=16;fontColor=#330000;" parent="aqYKtT-z00j4YyioXfuS-178" vertex="1">
          <mxGeometry x="155.42000000000007" width="147.5399999999999" height="33" as="geometry">
            <mxRectangle width="147.5399999999999" height="33" as="alternateBounds" />
          </mxGeometry>
        </mxCell>
        <mxCell id="1VweFIOlZkuIM1G34YTw-116" value="" style="shape=tableRow;horizontal=0;startSize=0;swimlaneHead=0;swimlaneBody=0;fillColor=#FFFFFF;collapsible=0;dropTarget=0;points=[[0,0.5],[1,0.5]];portConstraint=eastwest;top=0;left=1;right=1;bottom=0;labelBackgroundColor=none;strokeColor=#000000;strokeWidth=1;fontSize=16;fontColor=#330000;" parent="aqYKtT-z00j4YyioXfuS-171" vertex="1">
          <mxGeometry y="100" width="302.96" height="33" as="geometry" />
        </mxCell>
        <mxCell id="1VweFIOlZkuIM1G34YTw-117" value="Shared VPCs" style="shape=partialRectangle;connectable=0;fillColor=#FFFFFF;top=0;left=1;bottom=1;right=1;editable=1;overflow=hidden;labelBackgroundColor=none;strokeColor=#000000;strokeWidth=1;fontSize=16;fontColor=#330000;align=left;spacingLeft=5;" parent="1VweFIOlZkuIM1G34YTw-116" vertex="1">
          <mxGeometry width="155.42000000000007" height="33" as="geometry">
            <mxRectangle width="155.42000000000007" height="33" as="alternateBounds" />
          </mxGeometry>
        </mxCell>
        <mxCell id="1VweFIOlZkuIM1G34YTw-118" value="Propagated" style="shape=partialRectangle;connectable=0;fillColor=#FFFFFF;top=0;left=1;bottom=1;right=1;align=left;spacingLeft=5;overflow=hidden;labelBackgroundColor=none;strokeColor=#000000;strokeWidth=1;fontSize=16;fontColor=#330000;" parent="1VweFIOlZkuIM1G34YTw-116" vertex="1">
          <mxGeometry x="155.42000000000007" width="147.5399999999999" height="33" as="geometry">
            <mxRectangle width="147.5399999999999" height="33" as="alternateBounds" />
          </mxGeometry>
        </mxCell>
        <mxCell id="jw8hELuaOQ66Ps-ZdNnw-0" value="" style="shape=tableRow;horizontal=0;startSize=0;swimlaneHead=0;swimlaneBody=0;fillColor=#FFFFFF;collapsible=0;dropTarget=0;points=[[0,0.5],[1,0.5]];portConstraint=eastwest;top=0;left=1;right=1;bottom=0;labelBackgroundColor=none;strokeColor=#000000;strokeWidth=1;fontSize=16;fontColor=#330000;" parent="aqYKtT-z00j4YyioXfuS-171" vertex="1">
          <mxGeometry y="133" width="302.96" height="33" as="geometry" />
        </mxCell>
        <mxCell id="jw8hELuaOQ66Ps-ZdNnw-1" value="10.1.0.16" style="shape=partialRectangle;connectable=0;fillColor=#FFFFFF;top=0;left=1;bottom=1;right=1;editable=1;overflow=hidden;labelBackgroundColor=none;strokeColor=#000000;strokeWidth=1;fontSize=16;fontColor=#330000;align=left;spacingLeft=5;" parent="jw8hELuaOQ66Ps-ZdNnw-0" vertex="1">
          <mxGeometry width="155.42000000000007" height="33" as="geometry">
            <mxRectangle width="155.42000000000007" height="33" as="alternateBounds" />
          </mxGeometry>
        </mxCell>
        <mxCell id="jw8hELuaOQ66Ps-ZdNnw-2" value="TGW peering" style="shape=partialRectangle;connectable=0;fillColor=#FFFFFF;top=0;left=1;bottom=1;right=1;align=left;spacingLeft=5;overflow=hidden;labelBackgroundColor=none;strokeColor=#000000;strokeWidth=1;fontSize=16;fontColor=#330000;" parent="jw8hELuaOQ66Ps-ZdNnw-0" vertex="1">
          <mxGeometry x="155.42000000000007" width="147.5399999999999" height="33" as="geometry">
            <mxRectangle width="147.5399999999999" height="33" as="alternateBounds" />
          </mxGeometry>
        </mxCell>
        <mxCell id="TDstkuwxktSH631sSfCp-1" value="" style="shape=tableRow;horizontal=0;startSize=0;swimlaneHead=0;swimlaneBody=0;fillColor=#FFFFFF;collapsible=0;dropTarget=0;points=[[0,0.5],[1,0.5]];portConstraint=eastwest;top=0;left=1;right=1;bottom=0;labelBackgroundColor=none;strokeColor=#000000;strokeWidth=1;fontSize=16;fontColor=#330000;" parent="aqYKtT-z00j4YyioXfuS-171" vertex="1">
          <mxGeometry y="166" width="302.96" height="33" as="geometry" />
        </mxCell>
        <mxCell id="TDstkuwxktSH631sSfCp-2" value="192.168.0.0/24" style="shape=partialRectangle;connectable=0;fillColor=#FFFFFF;top=0;left=1;bottom=1;right=1;editable=1;overflow=hidden;labelBackgroundColor=none;strokeColor=#000000;strokeWidth=1;fontSize=16;fontColor=#330000;align=left;spacingLeft=5;" parent="TDstkuwxktSH631sSfCp-1" vertex="1">
          <mxGeometry width="155.42000000000007" height="33" as="geometry">
            <mxRectangle width="155.42000000000007" height="33" as="alternateBounds" />
          </mxGeometry>
        </mxCell>
        <mxCell id="TDstkuwxktSH631sSfCp-3" value="VPN/DX Gateway" style="shape=partialRectangle;connectable=0;fillColor=#FFFFFF;top=0;left=1;bottom=1;right=1;align=left;spacingLeft=5;overflow=hidden;labelBackgroundColor=none;strokeColor=#000000;strokeWidth=1;fontSize=16;fontColor=#330000;" parent="TDstkuwxktSH631sSfCp-1" vertex="1">
          <mxGeometry x="155.42000000000007" width="147.5399999999999" height="33" as="geometry">
            <mxRectangle width="147.5399999999999" height="33" as="alternateBounds" />
          </mxGeometry>
        </mxCell>
        <mxCell id="aqYKtT-z00j4YyioXfuS-189" style="edgeStyle=none;rounded=0;orthogonalLoop=1;jettySize=auto;html=1;exitX=1;exitY=0.5;exitDx=0;exitDy=0;strokeColor=#0000FF;strokeWidth=3;fontSize=16;fontColor=#FFFFFF;endArrow=none;endFill=0;fillColor=default;" parent="aqYKtT-z00j4YyioXfuS-1" edge="1">
          <mxGeometry relative="1" as="geometry">
            <mxPoint x="217.99999999999994" y="1362" as="sourcePoint" />
            <mxPoint x="217.99999999999994" y="1362" as="targetPoint" />
          </mxGeometry>
        </mxCell>
        <mxCell id="UTjYj0z58mMIfBRbZOVX-2" value="Network Firewall" style="sketch=0;points=[[0,0,0],[0.25,0,0],[0.5,0,0],[0.75,0,0],[1,0,0],[0,1,0],[0.25,1,0],[0.5,1,0],[0.75,1,0],[1,1,0],[0,0.25,0],[0,0.5,0],[0,0.75,0],[1,0.25,0],[1,0.5,0],[1,0.75,0]];outlineConnect=0;fontColor=#232F3E;gradientColor=#F54749;gradientDirection=north;fillColor=#C7131F;strokeColor=#ffffff;dashed=0;verticalLabelPosition=bottom;verticalAlign=top;align=center;html=1;fontSize=14;fontStyle=0;aspect=fixed;shape=mxgraph.aws4.resourceIcon;resIcon=mxgraph.aws4.network_firewall;" parent="aqYKtT-z00j4YyioXfuS-1" vertex="1">
          <mxGeometry x="-37.67000000000001" y="1432" width="78" height="78" as="geometry" />
        </mxCell>
        <mxCell id="UTjYj0z58mMIfBRbZOVX-8" value="NFW Endpoint" style="sketch=0;outlineConnect=0;fontColor=#232F3E;gradientColor=none;fillColor=#BF0816;strokeColor=none;dashed=0;verticalLabelPosition=bottom;verticalAlign=top;align=center;html=1;fontSize=12;fontStyle=0;aspect=fixed;pointerEvents=1;shape=mxgraph.aws4.network_firewall_endpoints;" parent="aqYKtT-z00j4YyioXfuS-1" vertex="1">
          <mxGeometry x="84.33" y="1435" width="76" height="76" as="geometry" />
        </mxCell>
        <mxCell id="tWPi0qfJOfL9Z5YvMPex-0" value="&lt;font style=&quot;font-size: 14px;&quot;&gt;Datacenter (on-premises)&lt;/font&gt;" style="rounded=0;whiteSpace=wrap;html=1;strokeWidth=2;fillColor=default;labelPosition=center;verticalLabelPosition=bottom;align=center;verticalAlign=top;strokeColor=#4D4D4D;fontSize=14;opacity=50;" parent="aqYKtT-z00j4YyioXfuS-1" vertex="1">
          <mxGeometry x="-630" y="742.12" width="300" height="152.75" as="geometry" />
        </mxCell>
        <mxCell id="tWPi0qfJOfL9Z5YvMPex-2" value="" style="endArrow=none;dashed=1;html=1;strokeWidth=2;fillColor=#f8cecc;strokeColor=#b85450;entryX=0.75;entryY=0;entryDx=0;entryDy=0;exitX=0.75;exitY=1;exitDx=0;exitDy=0;opacity=50;" parent="aqYKtT-z00j4YyioXfuS-1" source="tWPi0qfJOfL9Z5YvMPex-0" target="tWPi0qfJOfL9Z5YvMPex-0" edge="1">
          <mxGeometry width="50" height="50" relative="1" as="geometry">
            <mxPoint x="-400.99999999999994" y="942.37" as="sourcePoint" />
            <mxPoint x="-400.99999999999994" y="702.37" as="targetPoint" />
          </mxGeometry>
        </mxCell>
        <mxCell id="tWPi0qfJOfL9Z5YvMPex-3" value="" style="pointerEvents=1;shadow=0;dashed=0;html=1;strokeColor=none;labelPosition=center;verticalLabelPosition=bottom;verticalAlign=top;outlineConnect=0;align=center;shape=mxgraph.office.concepts.firewall;fillColor=#DA4026;opacity=50;" parent="aqYKtT-z00j4YyioXfuS-1" vertex="1">
          <mxGeometry x="-392.7" y="796.12" width="47" height="43" as="geometry" />
        </mxCell>
        <mxCell id="tWPi0qfJOfL9Z5YvMPex-5" style="edgeStyle=orthogonalEdgeStyle;rounded=0;orthogonalLoop=1;jettySize=auto;html=1;strokeWidth=3;opacity=50;" parent="aqYKtT-z00j4YyioXfuS-1" source="tWPi0qfJOfL9Z5YvMPex-4" target="tWPi0qfJOfL9Z5YvMPex-3" edge="1">
          <mxGeometry relative="1" as="geometry">
            <Array as="points">
              <mxPoint x="-369" y="723" />
            </Array>
            <mxPoint x="-226.67000000000007" y="823.99" as="sourcePoint" />
            <mxPoint x="-340.34000000000003" y="740.49" as="targetPoint" />
          </mxGeometry>
        </mxCell>
        <mxCell id="c2jrxfSJ30ph8Sp1wg5w-70" style="edgeStyle=orthogonalEdgeStyle;shape=connector;rounded=0;orthogonalLoop=1;jettySize=auto;html=1;entryX=0.25;entryY=0;entryDx=0;entryDy=0;labelBackgroundColor=default;strokeColor=default;strokeWidth=3;fontFamily=Helvetica;fontSize=11;fontColor=default;endArrow=classic;endFill=1;opacity=50;" parent="aqYKtT-z00j4YyioXfuS-1" source="tWPi0qfJOfL9Z5YvMPex-4" target="zit1sbZ7AsJ5WFsKgcYT-21" edge="1">
          <mxGeometry relative="1" as="geometry">
            <Array as="points">
              <mxPoint x="-19" y="723" />
            </Array>
          </mxGeometry>
        </mxCell>
        <mxCell id="tWPi0qfJOfL9Z5YvMPex-4" value="VPN Gateway&lt;br&gt;(optional)" style="sketch=0;outlineConnect=0;fontColor=#232F3E;gradientColor=none;fillColor=#4D27AA;strokeColor=none;dashed=0;verticalLabelPosition=bottom;verticalAlign=top;align=center;html=1;fontSize=12;fontStyle=0;aspect=fixed;pointerEvents=1;shape=mxgraph.aws4.vpn_gateway;opacity=50;" parent="aqYKtT-z00j4YyioXfuS-1" vertex="1">
          <mxGeometry x="-208.96" y="684" width="78" height="78" as="geometry" />
        </mxCell>
        <mxCell id="c2jrxfSJ30ph8Sp1wg5w-69" style="edgeStyle=orthogonalEdgeStyle;shape=connector;rounded=0;orthogonalLoop=1;jettySize=auto;html=1;entryX=1;entryY=0.75;entryDx=0;entryDy=0;entryPerimeter=0;labelBackgroundColor=default;strokeColor=default;strokeWidth=3;fontFamily=Helvetica;fontSize=11;fontColor=default;endArrow=none;endFill=0;" parent="aqYKtT-z00j4YyioXfuS-1" source="T7MBWcq7PoHURlIFYPy3-0" target="aqYKtT-z00j4YyioXfuS-57" edge="1">
          <mxGeometry relative="1" as="geometry" />
        </mxCell>
        <mxCell id="T7MBWcq7PoHURlIFYPy3-0" value="TGW Shared Route Table" style="shape=table;startSize=30;container=1;collapsible=1;childLayout=tableLayout;fixedRows=1;rowLines=1;fontStyle=1;align=center;resizeLast=1;labelBackgroundColor=none;strokeColor=#3700CC;strokeWidth=1;fontSize=16;fillColor=#6a00ff;perimeterSpacing=0;rounded=0;shadow=0;sketch=0;swimlaneLine=1;swimlaneFillColor=none;right=1;left=1;columnLines=1;top=1;bottom=1;swimlaneHead=1;swimlaneBody=1;horizontal=1;opacity=70;fontColor=#ffffff;" parent="aqYKtT-z00j4YyioXfuS-1" vertex="1">
          <mxGeometry x="352.5" y="1078" width="267.5" height="272" as="geometry">
            <mxRectangle x="380" y="210" width="80" height="30" as="alternateBounds" />
          </mxGeometry>
        </mxCell>
        <mxCell id="T7MBWcq7PoHURlIFYPy3-1" value="" style="shape=tableRow;horizontal=0;startSize=0;swimlaneHead=0;swimlaneBody=0;fillColor=#FFFFFF;collapsible=0;dropTarget=0;points=[[0,0.5],[1,0.5]];portConstraint=eastwest;top=0;left=1;right=1;bottom=0;labelBackgroundColor=none;strokeColor=#000000;strokeWidth=1;fontSize=16;fontColor=#330000;" parent="T7MBWcq7PoHURlIFYPy3-0" vertex="1">
          <mxGeometry y="30" width="267.5" height="32" as="geometry" />
        </mxCell>
        <mxCell id="T7MBWcq7PoHURlIFYPy3-2" value="Destination" style="shape=partialRectangle;connectable=0;fillColor=#FFFFFF;top=0;left=1;bottom=1;right=1;fontStyle=1;overflow=hidden;labelBackgroundColor=none;strokeColor=#000000;strokeWidth=1;fontSize=16;fontColor=#330000;align=left;spacingLeft=5;" parent="T7MBWcq7PoHURlIFYPy3-1" vertex="1">
          <mxGeometry width="137.5" height="32" as="geometry">
            <mxRectangle width="137.5" height="32" as="alternateBounds" />
          </mxGeometry>
        </mxCell>
        <mxCell id="T7MBWcq7PoHURlIFYPy3-3" value="Target" style="shape=partialRectangle;connectable=0;fillColor=#FFFFFF;top=0;left=1;bottom=1;right=1;align=left;spacingLeft=5;fontStyle=1;overflow=hidden;labelBackgroundColor=none;strokeColor=#000000;strokeWidth=1;fontSize=16;fontColor=#330000;" parent="T7MBWcq7PoHURlIFYPy3-1" vertex="1">
          <mxGeometry x="137.5" width="130" height="32" as="geometry">
            <mxRectangle width="130" height="32" as="alternateBounds" />
          </mxGeometry>
        </mxCell>
        <mxCell id="T7MBWcq7PoHURlIFYPy3-4" value="" style="shape=tableRow;horizontal=0;startSize=0;swimlaneHead=0;swimlaneBody=0;fillColor=#FFFFFF;collapsible=0;dropTarget=0;points=[[0,0.5],[1,0.5]];portConstraint=eastwest;top=0;left=1;right=1;bottom=0;labelBackgroundColor=none;strokeColor=#000000;strokeWidth=1;fontSize=16;fontColor=#330000;swimlaneFillColor=none;" parent="T7MBWcq7PoHURlIFYPy3-0" vertex="1">
          <mxGeometry y="62" width="267.5" height="35" as="geometry" />
        </mxCell>
        <mxCell id="T7MBWcq7PoHURlIFYPy3-5" value="All Spoke VPCs" style="shape=partialRectangle;connectable=0;fillColor=#FFFFFF;top=0;left=1;bottom=1;right=1;editable=1;overflow=hidden;labelBackgroundColor=none;strokeColor=#000000;strokeWidth=1;fontSize=16;fontColor=#330000;align=left;spacingLeft=5;" parent="T7MBWcq7PoHURlIFYPy3-4" vertex="1">
          <mxGeometry width="137.5" height="35" as="geometry">
            <mxRectangle width="137.5" height="35" as="alternateBounds" />
          </mxGeometry>
        </mxCell>
        <mxCell id="T7MBWcq7PoHURlIFYPy3-6" value="Propagated" style="shape=partialRectangle;connectable=0;fillColor=#FFFFFF;top=0;left=1;bottom=1;right=1;align=left;spacingLeft=5;overflow=hidden;labelBackgroundColor=none;strokeColor=#000000;strokeWidth=1;fontSize=16;fontColor=#330000;" parent="T7MBWcq7PoHURlIFYPy3-4" vertex="1">
          <mxGeometry x="137.5" width="130" height="35" as="geometry">
            <mxRectangle width="130" height="35" as="alternateBounds" />
          </mxGeometry>
        </mxCell>
        <mxCell id="T7MBWcq7PoHURlIFYPy3-7" value="" style="shape=tableRow;horizontal=0;startSize=0;swimlaneHead=0;swimlaneBody=0;fillColor=#FFFFFF;collapsible=0;dropTarget=0;points=[[0,0.5],[1,0.5]];portConstraint=eastwest;top=0;left=1;right=1;bottom=0;labelBackgroundColor=none;strokeColor=#000000;strokeWidth=1;fontSize=16;fontColor=#330000;swimlaneFillColor=none;" parent="T7MBWcq7PoHURlIFYPy3-0" vertex="1">
          <mxGeometry y="97" width="267.5" height="35" as="geometry" />
        </mxCell>
        <mxCell id="T7MBWcq7PoHURlIFYPy3-8" value="Shared VPCs" style="shape=partialRectangle;connectable=0;fillColor=#FFFFFF;top=0;left=1;bottom=1;right=1;editable=1;overflow=hidden;labelBackgroundColor=none;strokeColor=#000000;strokeWidth=1;fontSize=16;fontColor=#330000;align=left;spacingLeft=5;" parent="T7MBWcq7PoHURlIFYPy3-7" vertex="1">
          <mxGeometry width="137.5" height="35" as="geometry">
            <mxRectangle width="137.5" height="35" as="alternateBounds" />
          </mxGeometry>
        </mxCell>
        <mxCell id="T7MBWcq7PoHURlIFYPy3-9" value="Propagated" style="shape=partialRectangle;connectable=0;fillColor=#FFFFFF;top=0;left=1;bottom=1;right=1;align=left;spacingLeft=5;overflow=hidden;labelBackgroundColor=none;strokeColor=#000000;strokeWidth=1;fontSize=16;fontColor=#330000;" parent="T7MBWcq7PoHURlIFYPy3-7" vertex="1">
          <mxGeometry x="137.5" width="130" height="35" as="geometry">
            <mxRectangle width="130" height="35" as="alternateBounds" />
          </mxGeometry>
        </mxCell>
        <mxCell id="T7MBWcq7PoHURlIFYPy3-13" value="" style="shape=tableRow;horizontal=0;startSize=0;swimlaneHead=0;swimlaneBody=0;fillColor=#FFFFFF;collapsible=0;dropTarget=0;points=[[0,0.5],[1,0.5]];portConstraint=eastwest;top=0;left=1;right=1;bottom=0;labelBackgroundColor=none;strokeColor=#000000;strokeWidth=1;fontSize=16;fontColor=#330000;swimlaneFillColor=none;" parent="T7MBWcq7PoHURlIFYPy3-0" vertex="1">
          <mxGeometry y="132" width="267.5" height="35" as="geometry" />
        </mxCell>
        <mxCell id="T7MBWcq7PoHURlIFYPy3-14" value="192.168.0.0/24" style="shape=partialRectangle;connectable=0;fillColor=#FFFFFF;top=0;left=1;bottom=1;right=1;editable=1;overflow=hidden;labelBackgroundColor=none;strokeColor=#000000;strokeWidth=1;fontSize=16;fontColor=#330000;align=left;spacingLeft=5;" parent="T7MBWcq7PoHURlIFYPy3-13" vertex="1">
          <mxGeometry width="137.5" height="35" as="geometry">
            <mxRectangle width="137.5" height="35" as="alternateBounds" />
          </mxGeometry>
        </mxCell>
        <mxCell id="T7MBWcq7PoHURlIFYPy3-15" value="Inspection VPC" style="shape=partialRectangle;connectable=0;fillColor=#FFFFFF;top=0;left=1;bottom=1;right=1;align=left;spacingLeft=5;overflow=hidden;labelBackgroundColor=none;strokeColor=#000000;strokeWidth=1;fontSize=16;fontColor=#330000;" parent="T7MBWcq7PoHURlIFYPy3-13" vertex="1">
          <mxGeometry x="137.5" width="130" height="35" as="geometry">
            <mxRectangle width="130" height="35" as="alternateBounds" />
          </mxGeometry>
        </mxCell>
        <mxCell id="1VweFIOlZkuIM1G34YTw-104" value="" style="shape=tableRow;horizontal=0;startSize=0;swimlaneHead=0;swimlaneBody=0;fillColor=#FFFFFF;collapsible=0;dropTarget=0;points=[[0,0.5],[1,0.5]];portConstraint=eastwest;top=0;left=1;right=1;bottom=0;labelBackgroundColor=none;strokeColor=#000000;strokeWidth=1;fontSize=16;fontColor=#330000;swimlaneFillColor=none;" parent="T7MBWcq7PoHURlIFYPy3-0" vertex="1">
          <mxGeometry y="167" width="267.5" height="35" as="geometry" />
        </mxCell>
        <mxCell id="1VweFIOlZkuIM1G34YTw-105" value="10.1.0.0/16" style="shape=partialRectangle;connectable=0;fillColor=#FFFFFF;top=0;left=1;bottom=1;right=1;editable=1;overflow=hidden;labelBackgroundColor=none;strokeColor=#000000;strokeWidth=1;fontSize=16;fontColor=#330000;align=left;spacingLeft=5;" parent="1VweFIOlZkuIM1G34YTw-104" vertex="1">
          <mxGeometry width="137.5" height="35" as="geometry">
            <mxRectangle width="137.5" height="35" as="alternateBounds" />
          </mxGeometry>
        </mxCell>
        <mxCell id="1VweFIOlZkuIM1G34YTw-106" value="Inspection VPC" style="shape=partialRectangle;connectable=0;fillColor=#FFFFFF;top=0;left=1;bottom=1;right=1;align=left;spacingLeft=5;overflow=hidden;labelBackgroundColor=none;strokeColor=#000000;strokeWidth=1;fontSize=16;fontColor=#330000;" parent="1VweFIOlZkuIM1G34YTw-104" vertex="1">
          <mxGeometry x="137.5" width="130" height="35" as="geometry">
            <mxRectangle width="130" height="35" as="alternateBounds" />
          </mxGeometry>
        </mxCell>
        <mxCell id="zit1sbZ7AsJ5WFsKgcYT-12" value="" style="shape=tableRow;horizontal=0;startSize=0;swimlaneHead=0;swimlaneBody=0;fillColor=#FFFFFF;collapsible=0;dropTarget=0;points=[[0,0.5],[1,0.5]];portConstraint=eastwest;top=0;left=1;right=1;bottom=0;labelBackgroundColor=none;strokeColor=#000000;strokeWidth=1;fontSize=16;fontColor=#330000;swimlaneFillColor=none;" parent="T7MBWcq7PoHURlIFYPy3-0" vertex="1">
          <mxGeometry y="202" width="267.5" height="35" as="geometry" />
        </mxCell>
        <mxCell id="zit1sbZ7AsJ5WFsKgcYT-13" value="RFC1918 CIDR" style="shape=partialRectangle;connectable=0;fillColor=#FFFFFF;top=0;left=1;bottom=1;right=1;editable=1;overflow=hidden;labelBackgroundColor=none;strokeColor=#000000;strokeWidth=1;fontSize=16;fontColor=#330000;align=left;spacingLeft=5;" parent="zit1sbZ7AsJ5WFsKgcYT-12" vertex="1">
          <mxGeometry width="137.5" height="35" as="geometry">
            <mxRectangle width="137.5" height="35" as="alternateBounds" />
          </mxGeometry>
        </mxCell>
        <mxCell id="zit1sbZ7AsJ5WFsKgcYT-14" value="Blackhole" style="shape=partialRectangle;connectable=0;fillColor=#FFFFFF;top=0;left=1;bottom=1;right=1;align=left;spacingLeft=5;overflow=hidden;labelBackgroundColor=none;strokeColor=#000000;strokeWidth=1;fontSize=16;fontColor=#330000;" parent="zit1sbZ7AsJ5WFsKgcYT-12" vertex="1">
          <mxGeometry x="137.5" width="130" height="35" as="geometry">
            <mxRectangle width="130" height="35" as="alternateBounds" />
          </mxGeometry>
        </mxCell>
        <mxCell id="XnHM_eT497MIgNO5uT7V-0" value="" style="shape=tableRow;horizontal=0;startSize=0;swimlaneHead=0;swimlaneBody=0;fillColor=#FFFFFF;collapsible=0;dropTarget=0;points=[[0,0.5],[1,0.5]];portConstraint=eastwest;top=0;left=1;right=1;bottom=0;labelBackgroundColor=none;strokeColor=#000000;strokeWidth=1;fontSize=16;fontColor=#330000;swimlaneFillColor=none;" parent="T7MBWcq7PoHURlIFYPy3-0" vertex="1">
          <mxGeometry y="237" width="267.5" height="35" as="geometry" />
        </mxCell>
        <mxCell id="XnHM_eT497MIgNO5uT7V-1" value="0.0.0.0/0" style="shape=partialRectangle;connectable=0;fillColor=#FFFFFF;top=0;left=1;bottom=1;right=1;editable=1;overflow=hidden;labelBackgroundColor=none;strokeColor=#000000;strokeWidth=1;fontSize=16;fontColor=#330000;align=left;spacingLeft=5;" parent="XnHM_eT497MIgNO5uT7V-0" vertex="1">
          <mxGeometry width="137.5" height="35" as="geometry">
            <mxRectangle width="137.5" height="35" as="alternateBounds" />
          </mxGeometry>
        </mxCell>
        <mxCell id="XnHM_eT497MIgNO5uT7V-2" value="Inspection VPC" style="shape=partialRectangle;connectable=0;fillColor=#FFFFFF;top=0;left=1;bottom=1;right=1;align=left;spacingLeft=5;overflow=hidden;labelBackgroundColor=none;strokeColor=#000000;strokeWidth=1;fontSize=16;fontColor=#330000;" parent="XnHM_eT497MIgNO5uT7V-0" vertex="1">
          <mxGeometry x="137.5" width="130" height="35" as="geometry">
            <mxRectangle width="130" height="35" as="alternateBounds" />
          </mxGeometry>
        </mxCell>
        <mxCell id="c2jrxfSJ30ph8Sp1wg5w-67" style="edgeStyle=orthogonalEdgeStyle;shape=connector;rounded=0;orthogonalLoop=1;jettySize=auto;html=1;entryX=0.75;entryY=0;entryDx=0;entryDy=0;entryPerimeter=0;labelBackgroundColor=default;strokeColor=default;strokeWidth=3;fontFamily=Helvetica;fontSize=11;fontColor=default;endArrow=none;endFill=0;" parent="aqYKtT-z00j4YyioXfuS-1" source="aqYKtT-z00j4YyioXfuS-106" target="aqYKtT-z00j4YyioXfuS-57" edge="1">
          <mxGeometry relative="1" as="geometry" />
        </mxCell>
        <mxCell id="aqYKtT-z00j4YyioXfuS-106" value="Prod TGW Route Table" style="shape=table;startSize=30;container=1;collapsible=1;childLayout=tableLayout;fixedRows=1;rowLines=1;fontStyle=1;align=center;resizeLast=1;labelBackgroundColor=none;strokeColor=#000000;strokeWidth=1;fontSize=16;fillColor=#B3B3B3;perimeterSpacing=0;rounded=0;shadow=0;sketch=0;swimlaneLine=1;swimlaneFillColor=none;right=1;left=1;columnLines=1;top=1;bottom=1;swimlaneHead=1;swimlaneBody=1;horizontal=1;fontColor=#FFFFFF;opacity=90;" parent="aqYKtT-z00j4YyioXfuS-1" vertex="1">
          <mxGeometry x="351.25" y="479" width="268.75" height="260.68" as="geometry">
            <mxRectangle x="380" y="210" width="80" height="30" as="alternateBounds" />
          </mxGeometry>
        </mxCell>
        <mxCell id="aqYKtT-z00j4YyioXfuS-107" value="" style="shape=tableRow;horizontal=0;startSize=0;swimlaneHead=0;swimlaneBody=0;fillColor=#FFFFFF;collapsible=0;dropTarget=0;points=[[0,0.5],[1,0.5]];portConstraint=eastwest;top=0;left=1;right=1;bottom=0;labelBackgroundColor=none;strokeColor=#000000;strokeWidth=1;fontSize=16;fontColor=#330000;" parent="aqYKtT-z00j4YyioXfuS-106" vertex="1">
          <mxGeometry y="30" width="268.75" height="32" as="geometry" />
        </mxCell>
        <mxCell id="aqYKtT-z00j4YyioXfuS-108" value="Destination" style="shape=partialRectangle;connectable=0;fillColor=#FFFFFF;top=0;left=1;bottom=1;right=1;fontStyle=1;overflow=hidden;labelBackgroundColor=none;strokeColor=#000000;strokeWidth=1;fontSize=16;fontColor=#330000;align=left;spacingLeft=5;" parent="aqYKtT-z00j4YyioXfuS-107" vertex="1">
          <mxGeometry width="138.75" height="32" as="geometry">
            <mxRectangle width="138.75" height="32" as="alternateBounds" />
          </mxGeometry>
        </mxCell>
        <mxCell id="aqYKtT-z00j4YyioXfuS-109" value="Target" style="shape=partialRectangle;connectable=0;fillColor=#FFFFFF;top=0;left=1;bottom=1;right=1;align=left;spacingLeft=5;fontStyle=1;overflow=hidden;labelBackgroundColor=none;strokeColor=#000000;strokeWidth=1;fontSize=16;fontColor=#330000;" parent="aqYKtT-z00j4YyioXfuS-107" vertex="1">
          <mxGeometry x="138.75" width="130" height="32" as="geometry">
            <mxRectangle width="130" height="32" as="alternateBounds" />
          </mxGeometry>
        </mxCell>
        <mxCell id="aqYKtT-z00j4YyioXfuS-110" value="" style="shape=tableRow;horizontal=0;startSize=0;swimlaneHead=0;swimlaneBody=0;fillColor=#FFFFFF;collapsible=0;dropTarget=0;points=[[0,0.5],[1,0.5]];portConstraint=eastwest;top=0;left=1;right=1;bottom=0;labelBackgroundColor=none;strokeColor=#000000;strokeWidth=1;fontSize=16;fontColor=#330000;swimlaneFillColor=none;" parent="aqYKtT-z00j4YyioXfuS-106" vertex="1">
          <mxGeometry y="62" width="268.75" height="35" as="geometry" />
        </mxCell>
        <mxCell id="aqYKtT-z00j4YyioXfuS-111" value="Prod Spoke VPCs" style="shape=partialRectangle;connectable=0;fillColor=#FFFFFF;top=0;left=1;bottom=1;right=1;editable=1;overflow=hidden;labelBackgroundColor=none;strokeColor=#000000;strokeWidth=1;fontSize=16;fontColor=#330000;align=left;spacingLeft=5;" parent="aqYKtT-z00j4YyioXfuS-110" vertex="1">
          <mxGeometry width="138.75" height="35" as="geometry">
            <mxRectangle width="138.75" height="35" as="alternateBounds" />
          </mxGeometry>
        </mxCell>
        <mxCell id="aqYKtT-z00j4YyioXfuS-112" value="Propagated" style="shape=partialRectangle;connectable=0;fillColor=#FFFFFF;top=0;left=1;bottom=1;right=1;align=left;spacingLeft=5;overflow=hidden;labelBackgroundColor=none;strokeColor=#000000;strokeWidth=1;fontSize=16;fontColor=#330000;" parent="aqYKtT-z00j4YyioXfuS-110" vertex="1">
          <mxGeometry x="138.75" width="130" height="35" as="geometry">
            <mxRectangle width="130" height="35" as="alternateBounds" />
          </mxGeometry>
        </mxCell>
        <mxCell id="aqYKtT-z00j4YyioXfuS-113" value="" style="shape=tableRow;horizontal=0;startSize=0;swimlaneHead=0;swimlaneBody=0;fillColor=#FFFFFF;collapsible=0;dropTarget=0;points=[[0,0.5],[1,0.5]];portConstraint=eastwest;top=0;left=1;right=1;bottom=0;labelBackgroundColor=none;strokeColor=#000000;strokeWidth=1;fontSize=16;fontColor=#330000;" parent="aqYKtT-z00j4YyioXfuS-106" vertex="1">
          <mxGeometry y="97" width="268.75" height="32" as="geometry" />
        </mxCell>
        <mxCell id="aqYKtT-z00j4YyioXfuS-114" value="Shared VPCs" style="shape=partialRectangle;connectable=0;fillColor=#FFFFFF;top=0;left=1;bottom=1;right=1;editable=1;overflow=hidden;labelBackgroundColor=none;strokeColor=#000000;strokeWidth=1;fontSize=16;fontColor=#330000;align=left;spacingLeft=5;" parent="aqYKtT-z00j4YyioXfuS-113" vertex="1">
          <mxGeometry width="138.75" height="32" as="geometry">
            <mxRectangle width="138.75" height="32" as="alternateBounds" />
          </mxGeometry>
        </mxCell>
        <mxCell id="aqYKtT-z00j4YyioXfuS-115" value="Propagated" style="shape=partialRectangle;connectable=0;fillColor=#FFFFFF;top=0;left=1;bottom=1;right=1;align=left;spacingLeft=5;overflow=hidden;labelBackgroundColor=none;strokeColor=#000000;strokeWidth=1;fontSize=16;fontColor=#330000;" parent="aqYKtT-z00j4YyioXfuS-113" vertex="1">
          <mxGeometry x="138.75" width="130" height="32" as="geometry">
            <mxRectangle width="130" height="32" as="alternateBounds" />
          </mxGeometry>
        </mxCell>
        <mxCell id="QXBm9_GKwaDxnAOnPXvB-3" value="" style="shape=tableRow;horizontal=0;startSize=0;swimlaneHead=0;swimlaneBody=0;fillColor=#FFFFFF;collapsible=0;dropTarget=0;points=[[0,0.5],[1,0.5]];portConstraint=eastwest;top=0;left=1;right=1;bottom=0;labelBackgroundColor=none;strokeColor=#000000;strokeWidth=1;fontSize=16;fontColor=#330000;" parent="aqYKtT-z00j4YyioXfuS-106" vertex="1">
          <mxGeometry y="129" width="268.75" height="32" as="geometry" />
        </mxCell>
        <mxCell id="QXBm9_GKwaDxnAOnPXvB-4" value="192.168.0.0/24" style="shape=partialRectangle;connectable=0;fillColor=#FFFFFF;top=0;left=1;bottom=1;right=1;editable=1;overflow=hidden;labelBackgroundColor=none;strokeColor=#000000;strokeWidth=1;fontSize=16;fontColor=#330000;fontStyle=0;align=left;spacingLeft=5;" parent="QXBm9_GKwaDxnAOnPXvB-3" vertex="1">
          <mxGeometry width="138.75" height="32" as="geometry">
            <mxRectangle width="138.75" height="32" as="alternateBounds" />
          </mxGeometry>
        </mxCell>
        <mxCell id="QXBm9_GKwaDxnAOnPXvB-5" value="Inspection VPC" style="shape=partialRectangle;connectable=0;fillColor=#FFFFFF;top=0;left=1;bottom=1;right=1;align=left;spacingLeft=5;overflow=hidden;labelBackgroundColor=none;strokeColor=#000000;strokeWidth=1;fontSize=16;fontColor=#330000;fontStyle=0" parent="QXBm9_GKwaDxnAOnPXvB-3" vertex="1">
          <mxGeometry x="138.75" width="130" height="32" as="geometry">
            <mxRectangle width="130" height="32" as="alternateBounds" />
          </mxGeometry>
        </mxCell>
        <mxCell id="aqYKtT-z00j4YyioXfuS-116" value="" style="shape=tableRow;horizontal=0;startSize=0;swimlaneHead=0;swimlaneBody=0;fillColor=#FFFFFF;collapsible=0;dropTarget=0;points=[[0,0.5],[1,0.5]];portConstraint=eastwest;top=0;left=1;right=1;bottom=0;labelBackgroundColor=none;strokeColor=#000000;strokeWidth=1;fontSize=16;fontColor=#330000;" parent="aqYKtT-z00j4YyioXfuS-106" vertex="1">
          <mxGeometry y="161" width="268.75" height="33" as="geometry" />
        </mxCell>
        <mxCell id="aqYKtT-z00j4YyioXfuS-117" value="10.1.0.0/16" style="shape=partialRectangle;connectable=0;fillColor=#FFFFFF;top=0;left=1;bottom=1;right=1;editable=1;overflow=hidden;labelBackgroundColor=none;strokeColor=#000000;strokeWidth=1;fontSize=16;fontColor=#330000;align=left;spacingLeft=5;" parent="aqYKtT-z00j4YyioXfuS-116" vertex="1">
          <mxGeometry width="138.75" height="33" as="geometry">
            <mxRectangle width="138.75" height="33" as="alternateBounds" />
          </mxGeometry>
        </mxCell>
        <mxCell id="aqYKtT-z00j4YyioXfuS-118" value="Inspection VPC" style="shape=partialRectangle;connectable=0;fillColor=#FFFFFF;top=0;left=1;bottom=1;right=1;align=left;spacingLeft=5;overflow=hidden;labelBackgroundColor=none;strokeColor=#000000;strokeWidth=1;fontSize=16;fontColor=#330000;" parent="aqYKtT-z00j4YyioXfuS-116" vertex="1">
          <mxGeometry x="138.75" width="130" height="33" as="geometry">
            <mxRectangle width="130" height="33" as="alternateBounds" />
          </mxGeometry>
        </mxCell>
        <mxCell id="zit1sbZ7AsJ5WFsKgcYT-18" value="" style="shape=tableRow;horizontal=0;startSize=0;swimlaneHead=0;swimlaneBody=0;fillColor=#FFFFFF;collapsible=0;dropTarget=0;points=[[0,0.5],[1,0.5]];portConstraint=eastwest;top=0;left=1;right=1;bottom=0;labelBackgroundColor=none;strokeColor=#000000;strokeWidth=1;fontSize=16;fontColor=#330000;" parent="aqYKtT-z00j4YyioXfuS-106" vertex="1">
          <mxGeometry y="194" width="268.75" height="33" as="geometry" />
        </mxCell>
        <mxCell id="zit1sbZ7AsJ5WFsKgcYT-19" value="RFC1918 CIDR" style="shape=partialRectangle;connectable=0;fillColor=#FFFFFF;top=0;left=1;bottom=1;right=1;editable=1;overflow=hidden;labelBackgroundColor=none;strokeColor=#000000;strokeWidth=1;fontSize=16;fontColor=#330000;align=left;spacingLeft=5;" parent="zit1sbZ7AsJ5WFsKgcYT-18" vertex="1">
          <mxGeometry width="138.75" height="33" as="geometry">
            <mxRectangle width="138.75" height="33" as="alternateBounds" />
          </mxGeometry>
        </mxCell>
        <mxCell id="zit1sbZ7AsJ5WFsKgcYT-20" value="Blackhole" style="shape=partialRectangle;connectable=0;fillColor=#FFFFFF;top=0;left=1;bottom=1;right=1;align=left;spacingLeft=5;overflow=hidden;labelBackgroundColor=none;strokeColor=#000000;strokeWidth=1;fontSize=16;fontColor=#330000;" parent="zit1sbZ7AsJ5WFsKgcYT-18" vertex="1">
          <mxGeometry x="138.75" width="130" height="33" as="geometry">
            <mxRectangle width="130" height="33" as="alternateBounds" />
          </mxGeometry>
        </mxCell>
        <mxCell id="c2jrxfSJ30ph8Sp1wg5w-62" value="" style="shape=tableRow;horizontal=0;startSize=0;swimlaneHead=0;swimlaneBody=0;fillColor=#FFFFFF;collapsible=0;dropTarget=0;points=[[0,0.5],[1,0.5]];portConstraint=eastwest;top=0;left=1;right=1;bottom=0;labelBackgroundColor=none;strokeColor=#000000;strokeWidth=1;fontSize=16;fontColor=#330000;" parent="aqYKtT-z00j4YyioXfuS-106" vertex="1">
          <mxGeometry y="227" width="268.75" height="33" as="geometry" />
        </mxCell>
        <mxCell id="c2jrxfSJ30ph8Sp1wg5w-63" value="0.0.0.0/0" style="shape=partialRectangle;connectable=0;fillColor=#FFFFFF;top=0;left=1;bottom=1;right=1;editable=1;overflow=hidden;labelBackgroundColor=none;strokeColor=#000000;strokeWidth=1;fontSize=16;fontColor=#330000;align=left;spacingLeft=5;" parent="c2jrxfSJ30ph8Sp1wg5w-62" vertex="1">
          <mxGeometry width="138.75" height="33" as="geometry">
            <mxRectangle width="138.75" height="33" as="alternateBounds" />
          </mxGeometry>
        </mxCell>
        <mxCell id="c2jrxfSJ30ph8Sp1wg5w-64" value="Inspection VPC" style="shape=partialRectangle;connectable=0;fillColor=#FFFFFF;top=0;left=1;bottom=1;right=1;align=left;spacingLeft=5;overflow=hidden;labelBackgroundColor=none;strokeColor=#000000;strokeWidth=1;fontSize=16;fontColor=#330000;" parent="c2jrxfSJ30ph8Sp1wg5w-62" vertex="1">
          <mxGeometry x="138.75" width="130" height="33" as="geometry">
            <mxRectangle width="130" height="33" as="alternateBounds" />
          </mxGeometry>
        </mxCell>
        <mxCell id="1VweFIOlZkuIM1G34YTw-10" value="NAT Gateway" style="sketch=0;outlineConnect=0;fontColor=#232F3E;gradientColor=none;fillColor=#4D27AA;strokeColor=none;dashed=0;verticalLabelPosition=bottom;verticalAlign=top;align=center;html=1;fontSize=15;fontStyle=0;aspect=fixed;pointerEvents=1;shape=mxgraph.aws4.nat_gateway;" parent="aqYKtT-z00j4YyioXfuS-1" vertex="1">
          <mxGeometry x="-156.16999999999993" y="1432" width="78" height="78" as="geometry" />
        </mxCell>
        <mxCell id="1VweFIOlZkuIM1G34YTw-11" value="Private VPC Route Table" style="shape=table;startSize=30;container=1;collapsible=1;childLayout=tableLayout;fixedRows=1;rowLines=1;fontStyle=1;align=center;resizeLast=1;labelBackgroundColor=none;strokeColor=#000000;strokeWidth=1;fontSize=16;fillColor=#000000;perimeterSpacing=0;rounded=0;shadow=0;sketch=0;swimlaneLine=1;swimlaneFillColor=none;right=1;left=1;columnLines=1;top=1;bottom=1;swimlaneHead=1;swimlaneBody=1;horizontal=1;opacity=70;fontColor=#FFFFFF;" parent="aqYKtT-z00j4YyioXfuS-1" vertex="1">
          <mxGeometry x="1238" y="1302" width="200" height="130" as="geometry">
            <mxRectangle x="380" y="210" width="80" height="30" as="alternateBounds" />
          </mxGeometry>
        </mxCell>
        <mxCell id="1VweFIOlZkuIM1G34YTw-12" value="" style="shape=tableRow;horizontal=0;startSize=0;swimlaneHead=0;swimlaneBody=0;fillColor=#FFFFFF;collapsible=0;dropTarget=0;points=[[0,0.5],[1,0.5]];portConstraint=eastwest;top=0;left=1;right=1;bottom=0;labelBackgroundColor=none;strokeColor=#000000;strokeWidth=1;fontSize=16;fontColor=#330000;" parent="1VweFIOlZkuIM1G34YTw-11" vertex="1">
          <mxGeometry y="30" width="200" height="32" as="geometry" />
        </mxCell>
        <mxCell id="1VweFIOlZkuIM1G34YTw-13" value="Destination" style="shape=partialRectangle;connectable=0;fillColor=#FFFFFF;top=0;left=1;bottom=1;right=1;fontStyle=1;overflow=hidden;labelBackgroundColor=none;strokeColor=#000000;strokeWidth=1;fontSize=16;fontColor=#330000;" parent="1VweFIOlZkuIM1G34YTw-12" vertex="1">
          <mxGeometry width="133.5" height="32" as="geometry">
            <mxRectangle width="133.5" height="32" as="alternateBounds" />
          </mxGeometry>
        </mxCell>
        <mxCell id="1VweFIOlZkuIM1G34YTw-14" value="Target" style="shape=partialRectangle;connectable=0;fillColor=#FFFFFF;top=0;left=1;bottom=1;right=1;align=left;spacingLeft=6;fontStyle=1;overflow=hidden;labelBackgroundColor=none;strokeColor=#000000;strokeWidth=1;fontSize=16;fontColor=#330000;" parent="1VweFIOlZkuIM1G34YTw-12" vertex="1">
          <mxGeometry x="133.5" width="66.5" height="32" as="geometry">
            <mxRectangle width="66.5" height="32" as="alternateBounds" />
          </mxGeometry>
        </mxCell>
        <mxCell id="1VweFIOlZkuIM1G34YTw-15" value="" style="shape=tableRow;horizontal=0;startSize=0;swimlaneHead=0;swimlaneBody=0;fillColor=#FFFFFF;collapsible=0;dropTarget=0;points=[[0,0.5],[1,0.5]];portConstraint=eastwest;top=0;left=1;right=1;bottom=0;labelBackgroundColor=none;strokeColor=#000000;strokeWidth=1;fontSize=16;fontColor=#330000;swimlaneFillColor=none;" parent="1VweFIOlZkuIM1G34YTw-11" vertex="1">
          <mxGeometry y="62" width="200" height="35" as="geometry" />
        </mxCell>
        <mxCell id="1VweFIOlZkuIM1G34YTw-16" value="VPC" style="shape=partialRectangle;connectable=0;fillColor=#FFFFFF;top=0;left=1;bottom=1;right=1;editable=1;overflow=hidden;labelBackgroundColor=none;strokeColor=#000000;strokeWidth=1;fontSize=16;fontColor=#330000;" parent="1VweFIOlZkuIM1G34YTw-15" vertex="1">
          <mxGeometry width="133.5" height="35" as="geometry">
            <mxRectangle width="133.5" height="35" as="alternateBounds" />
          </mxGeometry>
        </mxCell>
        <mxCell id="1VweFIOlZkuIM1G34YTw-17" value="Local" style="shape=partialRectangle;connectable=0;fillColor=#FFFFFF;top=0;left=1;bottom=1;right=1;align=center;spacingLeft=6;overflow=hidden;labelBackgroundColor=none;strokeColor=#000000;strokeWidth=1;fontSize=16;fontColor=#330000;" parent="1VweFIOlZkuIM1G34YTw-15" vertex="1">
          <mxGeometry x="133.5" width="66.5" height="35" as="geometry">
            <mxRectangle width="66.5" height="35" as="alternateBounds" />
          </mxGeometry>
        </mxCell>
        <mxCell id="1VweFIOlZkuIM1G34YTw-18" value="" style="shape=tableRow;horizontal=0;startSize=0;swimlaneHead=0;swimlaneBody=0;fillColor=#FFFFFF;collapsible=0;dropTarget=0;points=[[0,0.5],[1,0.5]];portConstraint=eastwest;top=0;left=1;right=1;bottom=0;labelBackgroundColor=none;strokeColor=#000000;strokeWidth=1;fontSize=16;fontColor=#330000;" parent="1VweFIOlZkuIM1G34YTw-11" vertex="1">
          <mxGeometry y="97" width="200" height="33" as="geometry" />
        </mxCell>
        <mxCell id="1VweFIOlZkuIM1G34YTw-19" value="0.0.0.0/0" style="shape=partialRectangle;connectable=0;fillColor=#FFFFFF;top=0;left=1;bottom=1;right=1;editable=1;overflow=hidden;labelBackgroundColor=none;strokeColor=#000000;strokeWidth=1;fontSize=16;fontColor=#330000;" parent="1VweFIOlZkuIM1G34YTw-18" vertex="1">
          <mxGeometry width="133.5" height="33" as="geometry">
            <mxRectangle width="133.5" height="33" as="alternateBounds" />
          </mxGeometry>
        </mxCell>
        <mxCell id="1VweFIOlZkuIM1G34YTw-20" value="TGW" style="shape=partialRectangle;connectable=0;fillColor=#FFFFFF;top=0;left=1;bottom=1;right=1;align=center;spacingLeft=6;overflow=hidden;labelBackgroundColor=none;strokeColor=#000000;strokeWidth=1;fontSize=16;fontColor=#330000;" parent="1VweFIOlZkuIM1G34YTw-18" vertex="1">
          <mxGeometry x="133.5" width="66.5" height="33" as="geometry">
            <mxRectangle width="66.5" height="33" as="alternateBounds" />
          </mxGeometry>
        </mxCell>
        <mxCell id="1VweFIOlZkuIM1G34YTw-53" value="Private subnet" style="points=[[0,0],[0.25,0],[0.5,0],[0.75,0],[1,0],[1,0.25],[1,0.5],[1,0.75],[1,1],[0.75,1],[0.5,1],[0.25,1],[0,1],[0,0.75],[0,0.5],[0,0.25]];outlineConnect=0;gradientColor=none;html=1;whiteSpace=wrap;fontSize=12;fontStyle=0;container=1;pointerEvents=0;collapsible=0;recursiveResize=0;shape=mxgraph.aws4.group;grIcon=mxgraph.aws4.group_security_group;grStroke=0;strokeColor=#147EBA;fillColor=#E6F2F8;verticalAlign=top;align=left;spacingLeft=30;fontColor=#147EBA;dashed=0;" parent="aqYKtT-z00j4YyioXfuS-1" vertex="1">
          <mxGeometry x="1138.75" y="429" width="140" height="140.5" as="geometry" />
        </mxCell>
        <mxCell id="aqYKtT-z00j4YyioXfuS-49" value="EC2" style="points=[[0,0,0],[0.25,0,0],[0.5,0,0],[0.75,0,0],[1,0,0],[0,1,0],[0.25,1,0],[0.5,1,0],[0.75,1,0],[1,1,0],[0,0.25,0],[0,0.5,0],[0,0.75,0],[1,0.25,0],[1,0.5,0],[1,0.75,0]];outlineConnect=0;fontColor=#232F3E;gradientColor=#F78E04;gradientDirection=north;fillColor=#D05C17;strokeColor=#ffffff;dashed=0;verticalLabelPosition=bottom;verticalAlign=top;align=center;html=1;fontSize=12;fontStyle=0;aspect=fixed;shape=mxgraph.aws4.resourceIcon;resIcon=mxgraph.aws4.ec2;labelBackgroundColor=#ffffff;" parent="1VweFIOlZkuIM1G34YTw-53" vertex="1">
          <mxGeometry x="31.38000000000011" y="34.5" width="78" height="78" as="geometry" />
        </mxCell>
        <mxCell id="1VweFIOlZkuIM1G34YTw-54" value="Public subnet" style="points=[[0,0],[0.25,0],[0.5,0],[0.75,0],[1,0],[1,0.25],[1,0.5],[1,0.75],[1,1],[0.75,1],[0.5,1],[0.25,1],[0,1],[0,0.75],[0,0.5],[0,0.25]];outlineConnect=0;gradientColor=none;html=1;whiteSpace=wrap;fontSize=12;fontStyle=0;container=1;pointerEvents=0;collapsible=0;recursiveResize=0;shape=mxgraph.aws4.group;grIcon=mxgraph.aws4.group_security_group;grStroke=0;strokeColor=#248814;fillColor=#E9F3E6;verticalAlign=top;align=left;spacingLeft=30;fontColor=#248814;dashed=0;" parent="aqYKtT-z00j4YyioXfuS-1" vertex="1">
          <mxGeometry x="858.75" y="429" width="260" height="140.5" as="geometry" />
        </mxCell>
        <mxCell id="aqYKtT-z00j4YyioXfuS-51" value="WAF" style="points=[[0,0,0],[0.25,0,0],[0.5,0,0],[0.75,0,0],[1,0,0],[0,1,0],[0.25,1,0],[0.5,1,0],[0.75,1,0],[1,1,0],[0,0.25,0],[0,0.5,0],[0,0.75,0],[1,0.25,0],[1,0.5,0],[1,0.75,0]];outlineConnect=0;fontColor=#232F3E;gradientColor=#F54749;gradientDirection=north;fillColor=#C7131F;strokeColor=#ffffff;dashed=0;verticalLabelPosition=bottom;verticalAlign=top;align=center;html=1;fontSize=12;fontStyle=0;aspect=fixed;shape=mxgraph.aws4.resourceIcon;resIcon=mxgraph.aws4.waf;labelBackgroundColor=#ffffff;" parent="1VweFIOlZkuIM1G34YTw-54" vertex="1">
          <mxGeometry x="30" y="34.5" width="78" height="78" as="geometry" />
        </mxCell>
        <mxCell id="1VweFIOlZkuIM1G34YTw-51" value="App Load Balancer" style="sketch=0;outlineConnect=0;fontColor=#232F3E;gradientColor=none;fillColor=#4D27AA;strokeColor=none;dashed=0;verticalLabelPosition=bottom;verticalAlign=top;align=center;html=1;fontSize=12;fontStyle=0;aspect=fixed;pointerEvents=1;shape=mxgraph.aws4.application_load_balancer;" parent="1VweFIOlZkuIM1G34YTw-54" vertex="1">
          <mxGeometry x="150" y="31" width="78" height="78" as="geometry" />
        </mxCell>
        <mxCell id="1VweFIOlZkuIM1G34YTw-95" style="edgeStyle=orthogonalEdgeStyle;rounded=0;orthogonalLoop=1;jettySize=auto;html=1;strokeWidth=3;strokeColor=#FF8000;startArrow=none;startFill=0;endArrow=none;endFill=0;exitX=0.5;exitY=0;exitDx=0;exitDy=0;exitPerimeter=0;" parent="aqYKtT-z00j4YyioXfuS-1" source="aqYKtT-z00j4YyioXfuS-57" target="DSyL7bm2ueviZuuxjkZw-1" edge="1">
          <mxGeometry relative="1" as="geometry">
            <mxPoint x="267" y="920" as="sourcePoint" />
            <Array as="points">
              <mxPoint x="259" y="574" />
            </Array>
          </mxGeometry>
        </mxCell>
        <mxCell id="1VweFIOlZkuIM1G34YTw-96" value="Transit Gateway&lt;br style=&quot;font-size: 15px;&quot;&gt;global peering" style="edgeLabel;html=1;align=center;verticalAlign=middle;resizable=0;points=[];fontSize=15;" parent="1VweFIOlZkuIM1G34YTw-95" vertex="1" connectable="0">
          <mxGeometry x="-0.0272" y="-4" relative="1" as="geometry">
            <mxPoint x="-136" y="-47" as="offset" />
          </mxGeometry>
        </mxCell>
        <mxCell id="1VweFIOlZkuIM1G34YTw-24" value="Shared DevOps Account" style="points=[[0,0],[0.25,0],[0.5,0],[0.75,0],[1,0],[1,0.25],[1,0.5],[1,0.75],[1,1],[0.75,1],[0.5,1],[0.25,1],[0,1],[0,0.75],[0,0.5],[0,0.25]];outlineConnect=0;gradientColor=none;html=1;whiteSpace=wrap;fontSize=12;fontStyle=0;shape=mxgraph.aws4.group;grIcon=mxgraph.aws4.group_aws_cloud;strokeColor=#232F3E;verticalAlign=top;align=left;spacingLeft=30;fontColor=#232F3E;dashed=0;labelBackgroundColor=#ffffff;" parent="aqYKtT-z00j4YyioXfuS-1" vertex="1">
          <mxGeometry x="807.71" y="1384" width="380" height="248" as="geometry" />
        </mxCell>
        <mxCell id="1VweFIOlZkuIM1G34YTw-25" value="VPC" style="points=[[0,0],[0.25,0],[0.5,0],[0.75,0],[1,0],[1,0.25],[1,0.5],[1,0.75],[1,1],[0.75,1],[0.5,1],[0.25,1],[0,1],[0,0.75],[0,0.5],[0,0.25]];outlineConnect=0;html=1;whiteSpace=wrap;fontSize=12;shape=mxgraph.aws4.group;grIcon=mxgraph.aws4.group_vpc;verticalAlign=top;align=left;fillColor=none;dashed=0;fontColor=default;fontStyle=0;strokeColor=#000000;spacingLeft=30;" parent="aqYKtT-z00j4YyioXfuS-1" vertex="1">
          <mxGeometry x="827.71" y="1419" width="340" height="193" as="geometry" />
        </mxCell>
        <mxCell id="1VweFIOlZkuIM1G34YTw-87" value="Private subnet" style="points=[[0,0],[0.25,0],[0.5,0],[0.75,0],[1,0],[1,0.25],[1,0.5],[1,0.75],[1,1],[0.75,1],[0.5,1],[0.25,1],[0,1],[0,0.75],[0,0.5],[0,0.25]];outlineConnect=0;gradientColor=none;html=1;whiteSpace=wrap;fontSize=12;fontStyle=0;container=1;pointerEvents=0;collapsible=0;recursiveResize=0;shape=mxgraph.aws4.group;grIcon=mxgraph.aws4.group_security_group;grStroke=0;strokeColor=#147EBA;fillColor=#E6F2F8;verticalAlign=top;align=left;spacingLeft=30;fontColor=#147EBA;dashed=0;" parent="aqYKtT-z00j4YyioXfuS-1" vertex="1">
          <mxGeometry x="855.46" y="1448.5" width="300" height="140.5" as="geometry" />
        </mxCell>
        <mxCell id="1VweFIOlZkuIM1G34YTw-26" value="EC2" style="points=[[0,0,0],[0.25,0,0],[0.5,0,0],[0.75,0,0],[1,0,0],[0,1,0],[0.25,1,0],[0.5,1,0],[0.75,1,0],[1,1,0],[0,0.25,0],[0,0.5,0],[0,0.75,0],[1,0.25,0],[1,0.5,0],[1,0.75,0]];outlineConnect=0;fontColor=#232F3E;gradientColor=#F78E04;gradientDirection=north;fillColor=#D05C17;strokeColor=#ffffff;dashed=0;verticalLabelPosition=bottom;verticalAlign=top;align=center;html=1;fontSize=12;fontStyle=0;aspect=fixed;shape=mxgraph.aws4.resourceIcon;resIcon=mxgraph.aws4.ec2;labelBackgroundColor=#ffffff;" parent="1VweFIOlZkuIM1G34YTw-87" vertex="1">
          <mxGeometry x="32.25" y="35" width="78" height="78" as="geometry" />
        </mxCell>
        <mxCell id="1VweFIOlZkuIM1G34YTw-90" value="Shared Services Account" style="points=[[0,0],[0.25,0],[0.5,0],[0.75,0],[1,0],[1,0.25],[1,0.5],[1,0.75],[1,1],[0.75,1],[0.5,1],[0.25,1],[0,1],[0,0.75],[0,0.5],[0,0.25]];outlineConnect=0;gradientColor=none;html=1;whiteSpace=wrap;fontSize=12;fontStyle=0;shape=mxgraph.aws4.group;grIcon=mxgraph.aws4.group_aws_cloud;strokeColor=#232F3E;verticalAlign=top;align=left;spacingLeft=30;fontColor=#232F3E;dashed=0;labelBackgroundColor=#ffffff;" parent="aqYKtT-z00j4YyioXfuS-1" vertex="1">
          <mxGeometry x="807.71" y="1110" width="380" height="248" as="geometry" />
        </mxCell>
        <mxCell id="1VweFIOlZkuIM1G34YTw-91" value="VPC" style="points=[[0,0],[0.25,0],[0.5,0],[0.75,0],[1,0],[1,0.25],[1,0.5],[1,0.75],[1,1],[0.75,1],[0.5,1],[0.25,1],[0,1],[0,0.75],[0,0.5],[0,0.25]];outlineConnect=0;html=1;whiteSpace=wrap;fontSize=12;shape=mxgraph.aws4.group;grIcon=mxgraph.aws4.group_vpc;verticalAlign=top;align=left;fillColor=none;dashed=0;fontColor=default;fontStyle=0;strokeColor=#000000;spacingLeft=30;" parent="aqYKtT-z00j4YyioXfuS-1" vertex="1">
          <mxGeometry x="827.71" y="1145" width="340" height="193" as="geometry" />
        </mxCell>
        <mxCell id="1VweFIOlZkuIM1G34YTw-92" value="Private subnet" style="points=[[0,0],[0.25,0],[0.5,0],[0.75,0],[1,0],[1,0.25],[1,0.5],[1,0.75],[1,1],[0.75,1],[0.5,1],[0.25,1],[0,1],[0,0.75],[0,0.5],[0,0.25]];outlineConnect=0;gradientColor=none;html=1;whiteSpace=wrap;fontSize=12;fontStyle=0;container=1;pointerEvents=0;collapsible=0;recursiveResize=0;shape=mxgraph.aws4.group;grIcon=mxgraph.aws4.group_security_group;grStroke=0;strokeColor=#147EBA;fillColor=#E6F2F8;verticalAlign=top;align=left;spacingLeft=30;fontColor=#147EBA;dashed=0;" parent="aqYKtT-z00j4YyioXfuS-1" vertex="1">
          <mxGeometry x="855.46" y="1174.5" width="300" height="140.5" as="geometry" />
        </mxCell>
        <mxCell id="1VweFIOlZkuIM1G34YTw-93" value="EC2" style="points=[[0,0,0],[0.25,0,0],[0.5,0,0],[0.75,0,0],[1,0,0],[0,1,0],[0.25,1,0],[0.5,1,0],[0.75,1,0],[1,1,0],[0,0.25,0],[0,0.5,0],[0,0.75,0],[1,0.25,0],[1,0.5,0],[1,0.75,0]];outlineConnect=0;fontColor=#232F3E;gradientColor=#F78E04;gradientDirection=north;fillColor=#D05C17;strokeColor=#ffffff;dashed=0;verticalLabelPosition=bottom;verticalAlign=top;align=center;html=1;fontSize=12;fontStyle=0;aspect=fixed;shape=mxgraph.aws4.resourceIcon;resIcon=mxgraph.aws4.ec2;labelBackgroundColor=#ffffff;" parent="1VweFIOlZkuIM1G34YTw-92" vertex="1">
          <mxGeometry x="32.25" y="33.5" width="78" height="78" as="geometry" />
        </mxCell>
        <mxCell id="kgRzprYm58ZYlMdNWh1N-13" value="EC2" style="points=[[0,0,0],[0.25,0,0],[0.5,0,0],[0.75,0,0],[1,0,0],[0,1,0],[0.25,1,0],[0.5,1,0],[0.75,1,0],[1,1,0],[0,0.25,0],[0,0.5,0],[0,0.75,0],[1,0.25,0],[1,0.5,0],[1,0.75,0]];outlineConnect=0;fontColor=#232F3E;gradientColor=#F78E04;gradientDirection=north;fillColor=#D05C17;strokeColor=#ffffff;dashed=0;verticalLabelPosition=bottom;verticalAlign=top;align=center;html=1;fontSize=12;fontStyle=0;aspect=fixed;shape=mxgraph.aws4.resourceIcon;resIcon=mxgraph.aws4.ec2;labelBackgroundColor=#ffffff;" parent="1VweFIOlZkuIM1G34YTw-92" vertex="1">
          <mxGeometry x="177.54" y="33.5" width="78" height="78" as="geometry" />
        </mxCell>
        <mxCell id="1VweFIOlZkuIM1G34YTw-97" value="us-west-2" style="points=[[0,0],[0.25,0],[0.5,0],[0.75,0],[1,0],[1,0.25],[1,0.5],[1,0.75],[1,1],[0.75,1],[0.5,1],[0.25,1],[0,1],[0,0.75],[0,0.5],[0,0.25]];outlineConnect=0;gradientColor=none;html=1;whiteSpace=wrap;fontSize=12;fontStyle=0;container=1;pointerEvents=0;collapsible=0;recursiveResize=0;shape=mxgraph.aws4.group;grIcon=mxgraph.aws4.group_region;strokeColor=#147EBA;fillColor=none;verticalAlign=top;align=left;spacingLeft=30;fontColor=#147EBA;dashed=1;" parent="aqYKtT-z00j4YyioXfuS-1" vertex="1">
          <mxGeometry x="-208" y="494.5" width="266" height="165.5" as="geometry" />
        </mxCell>
        <mxCell id="DSyL7bm2ueviZuuxjkZw-1" value="Transit Gateway" style="points=[[0,0,0],[0.25,0,0],[0.5,0,0],[0.75,0,0],[1,0,0],[0,1,0],[0.25,1,0],[0.5,1,0],[0.75,1,0],[1,1,0],[0,0.25,0],[0,0.5,0],[0,0.75,0],[1,0.25,0],[1,0.5,0],[1,0.75,0]];outlineConnect=0;fontColor=#232F3E;gradientColor=#945DF2;gradientDirection=north;fillColor=#5A30B5;strokeColor=#ffffff;dashed=0;verticalLabelPosition=bottom;verticalAlign=top;align=center;html=1;fontSize=14;fontStyle=0;aspect=fixed;shape=mxgraph.aws4.resourceIcon;resIcon=mxgraph.aws4.transit_gateway;labelBackgroundColor=#ffffff;labelBorderColor=none;" parent="1VweFIOlZkuIM1G34YTw-97" vertex="1">
          <mxGeometry x="94.00000000000001" y="40.5" width="78" height="78" as="geometry" />
        </mxCell>
        <mxCell id="VjTDC7WTQWD1o37_lHGb-0" style="edgeStyle=orthogonalEdgeStyle;rounded=0;orthogonalLoop=1;jettySize=auto;html=1;strokeWidth=3;endArrow=none;endFill=0;startArrow=classic;startFill=1;" parent="aqYKtT-z00j4YyioXfuS-1" source="zit1sbZ7AsJ5WFsKgcYT-21" edge="1">
          <mxGeometry relative="1" as="geometry">
            <mxPoint x="130" y="594" as="targetPoint" />
            <Array as="points">
              <mxPoint x="130" y="681" />
              <mxPoint x="131" y="594" />
            </Array>
          </mxGeometry>
        </mxCell>
        <mxCell id="c2jrxfSJ30ph8Sp1wg5w-65" style="edgeStyle=orthogonalEdgeStyle;rounded=0;orthogonalLoop=1;jettySize=auto;html=1;endArrow=none;endFill=0;strokeWidth=3;" parent="aqYKtT-z00j4YyioXfuS-1" source="zit1sbZ7AsJ5WFsKgcYT-21" target="aqYKtT-z00j4YyioXfuS-57" edge="1">
          <mxGeometry relative="1" as="geometry">
            <Array as="points">
              <mxPoint x="242" y="815" />
            </Array>
          </mxGeometry>
        </mxCell>
        <mxCell id="zit1sbZ7AsJ5WFsKgcYT-21" value="Gateway TGW Route Table" style="shape=table;startSize=34;container=1;collapsible=1;childLayout=tableLayout;fixedRows=1;rowLines=1;fontStyle=1;align=center;resizeLast=1;labelBackgroundColor=none;strokeColor=#3700CC;strokeWidth=1;fontSize=16;fillColor=#6a00ff;perimeterSpacing=0;rounded=0;shadow=0;sketch=0;swimlaneLine=1;swimlaneFillColor=none;right=1;left=1;columnLines=1;top=1;bottom=1;swimlaneHead=1;swimlaneBody=1;horizontal=1;opacity=70;fontColor=#ffffff;" parent="aqYKtT-z00j4YyioXfuS-1" vertex="1">
          <mxGeometry x="-85.84" y="766" width="267.34000000000015" height="101" as="geometry">
            <mxRectangle x="380" y="210" width="80" height="30" as="alternateBounds" />
          </mxGeometry>
        </mxCell>
        <mxCell id="zit1sbZ7AsJ5WFsKgcYT-22" value="" style="shape=tableRow;horizontal=0;startSize=0;swimlaneHead=0;swimlaneBody=0;fillColor=#FFFFFF;collapsible=0;dropTarget=0;points=[[0,0.5],[1,0.5]];portConstraint=eastwest;top=0;left=1;right=1;bottom=0;labelBackgroundColor=none;strokeColor=#000000;strokeWidth=1;fontSize=16;fontColor=#330000;" parent="zit1sbZ7AsJ5WFsKgcYT-21" vertex="1">
          <mxGeometry y="34" width="267.34000000000015" height="32" as="geometry" />
        </mxCell>
        <mxCell id="zit1sbZ7AsJ5WFsKgcYT-23" value="Destination" style="shape=partialRectangle;connectable=0;fillColor=#FFFFFF;top=0;left=1;bottom=1;right=1;fontStyle=1;overflow=hidden;labelBackgroundColor=none;strokeColor=#000000;strokeWidth=1;fontSize=16;fontColor=#330000;spacingLeft=5;align=left;" parent="zit1sbZ7AsJ5WFsKgcYT-22" vertex="1">
          <mxGeometry width="143.9300000000003" height="32" as="geometry">
            <mxRectangle width="143.9300000000003" height="32" as="alternateBounds" />
          </mxGeometry>
        </mxCell>
        <mxCell id="zit1sbZ7AsJ5WFsKgcYT-24" value="Target" style="shape=partialRectangle;connectable=0;fillColor=#FFFFFF;top=0;left=1;bottom=1;right=1;align=left;spacingLeft=5;fontStyle=1;overflow=hidden;labelBackgroundColor=none;strokeColor=#000000;strokeWidth=1;fontSize=16;fontColor=#330000;" parent="zit1sbZ7AsJ5WFsKgcYT-22" vertex="1">
          <mxGeometry x="143.9300000000003" width="123.40999999999985" height="32" as="geometry">
            <mxRectangle width="123.40999999999985" height="32" as="alternateBounds" />
          </mxGeometry>
        </mxCell>
        <mxCell id="zit1sbZ7AsJ5WFsKgcYT-25" value="" style="shape=tableRow;horizontal=0;startSize=0;swimlaneHead=0;swimlaneBody=0;fillColor=#FFFFFF;collapsible=0;dropTarget=0;points=[[0,0.5],[1,0.5]];portConstraint=eastwest;top=0;left=1;right=1;bottom=0;labelBackgroundColor=none;strokeColor=#000000;strokeWidth=1;fontSize=16;fontColor=#330000;swimlaneFillColor=none;" parent="zit1sbZ7AsJ5WFsKgcYT-21" vertex="1">
          <mxGeometry y="66" width="267.34000000000015" height="35" as="geometry" />
        </mxCell>
        <mxCell id="zit1sbZ7AsJ5WFsKgcYT-26" value="RFC1918 CIDR" style="shape=partialRectangle;connectable=0;fillColor=#FFFFFF;top=0;left=1;bottom=1;right=1;editable=1;overflow=hidden;labelBackgroundColor=none;strokeColor=#000000;strokeWidth=1;fontSize=16;fontColor=#330000;spacingLeft=5;align=left;" parent="zit1sbZ7AsJ5WFsKgcYT-25" vertex="1">
          <mxGeometry width="143.9300000000003" height="35" as="geometry">
            <mxRectangle width="143.9300000000003" height="35" as="alternateBounds" />
          </mxGeometry>
        </mxCell>
        <mxCell id="zit1sbZ7AsJ5WFsKgcYT-27" value="Inspection VPC" style="shape=partialRectangle;connectable=0;fillColor=#FFFFFF;top=0;left=1;bottom=1;right=1;align=left;spacingLeft=5;overflow=hidden;labelBackgroundColor=none;strokeColor=#000000;strokeWidth=1;fontSize=16;fontColor=#330000;" parent="zit1sbZ7AsJ5WFsKgcYT-25" vertex="1">
          <mxGeometry x="143.9300000000003" width="123.40999999999985" height="35" as="geometry">
            <mxRectangle width="123.40999999999985" height="35" as="alternateBounds" />
          </mxGeometry>
        </mxCell>
        <mxCell id="aqYKtT-z00j4YyioXfuS-57" value="Regional&lt;br&gt;Transit Gateway" style="points=[[0,0,0],[0.25,0,0],[0.5,0,0],[0.75,0,0],[1,0,0],[0,1,0],[0.25,1,0],[0.5,1,0],[0.75,1,0],[1,1,0],[0,0.25,0],[0,0.5,0],[0,0.75,0],[1,0.25,0],[1,0.5,0],[1,0.75,0]];outlineConnect=0;fontColor=#232F3E;gradientColor=#945DF2;gradientDirection=north;fillColor=#5A30B5;strokeColor=#ffffff;dashed=0;verticalLabelPosition=bottom;verticalAlign=top;align=center;html=1;fontSize=14;fontStyle=0;aspect=fixed;shape=mxgraph.aws4.resourceIcon;resIcon=mxgraph.aws4.transit_gateway;labelBackgroundColor=default;labelBorderColor=none;" parent="aqYKtT-z00j4YyioXfuS-1" vertex="1">
          <mxGeometry x="220" y="937" width="78" height="78" as="geometry" />
        </mxCell>
        <mxCell id="aqYKtT-z00j4YyioXfuS-56" style="edgeStyle=orthogonalEdgeStyle;rounded=0;orthogonalLoop=1;jettySize=auto;html=1;strokeColor=#000000;strokeWidth=3;fontSize=16;fontColor=#330000;endArrow=none;endFill=0;exitX=1;exitY=0.5;exitDx=0;exitDy=0;startArrow=classic;startFill=1;entryX=0;entryY=0.25;entryDx=0;entryDy=0;" parent="aqYKtT-z00j4YyioXfuS-1" source="T7MBWcq7PoHURlIFYPy3-7" target="1VweFIOlZkuIM1G34YTw-91" edge="1">
          <mxGeometry relative="1" as="geometry">
            <mxPoint x="159" y="1713.5" as="sourcePoint" />
            <mxPoint x="825.75" y="1237" as="targetPoint" />
          </mxGeometry>
        </mxCell>
        <mxCell id="VjTDC7WTQWD1o37_lHGb-2" value="association" style="edgeLabel;html=1;align=center;verticalAlign=middle;resizable=0;points=[];fontSize=14;" parent="aqYKtT-z00j4YyioXfuS-56" vertex="1" connectable="0">
          <mxGeometry x="-0.1053" relative="1" as="geometry">
            <mxPoint x="-14" y="-3" as="offset" />
          </mxGeometry>
        </mxCell>
        <mxCell id="uJ9PGMtsIgLYczrTkI9N-0" value="CodeBuild" style="sketch=0;points=[[0,0,0],[0.25,0,0],[0.5,0,0],[0.75,0,0],[1,0,0],[0,1,0],[0.25,1,0],[0.5,1,0],[0.75,1,0],[1,1,0],[0,0.25,0],[0,0.5,0],[0,0.75,0],[1,0.25,0],[1,0.5,0],[1,0.75,0]];outlineConnect=0;fontColor=#232F3E;gradientColor=#4D72F3;gradientDirection=north;fillColor=#3334B9;strokeColor=#ffffff;dashed=0;verticalLabelPosition=bottom;verticalAlign=top;align=center;html=1;fontSize=12;fontStyle=0;aspect=fixed;shape=mxgraph.aws4.resourceIcon;resIcon=mxgraph.aws4.codebuild;" parent="aqYKtT-z00j4YyioXfuS-1" vertex="1">
          <mxGeometry x="1030.01" y="1483.5" width="78" height="78" as="geometry" />
        </mxCell>
        <mxCell id="uJ9PGMtsIgLYczrTkI9N-4" value="" style="sketch=0;outlineConnect=0;gradientColor=none;fontColor=#545B64;strokeColor=none;fillColor=#879196;dashed=0;verticalLabelPosition=bottom;verticalAlign=top;align=center;html=1;fontSize=12;fontStyle=0;aspect=fixed;shape=mxgraph.aws4.illustration_office_building;pointerEvents=1;opacity=50;" parent="aqYKtT-z00j4YyioXfuS-1" vertex="1">
          <mxGeometry x="-600.66" y="757.62" width="169.01" height="120" as="geometry" />
        </mxCell>
        <mxCell id="sJYHBMS0tJ9YK230ePcY-0" value="CIDR 10.1.0.0/16" style="text;html=1;strokeColor=none;fillColor=none;align=center;verticalAlign=middle;whiteSpace=wrap;rounded=0;fontStyle=1;fontColor=#0000CC;fontSize=16;" parent="aqYKtT-z00j4YyioXfuS-1" vertex="1">
          <mxGeometry x="-76.37" y="493.5" width="134.37" height="30" as="geometry" />
        </mxCell>
        <mxCell id="sJYHBMS0tJ9YK230ePcY-1" value="CIDR 192.168.0.0/24" style="text;html=1;strokeColor=none;fillColor=none;align=center;verticalAlign=middle;whiteSpace=wrap;rounded=0;fontStyle=1;fontColor=#0000CC;fontSize=16;opacity=50;textOpacity=60;" parent="aqYKtT-z00j4YyioXfuS-1" vertex="1">
          <mxGeometry x="-630" y="716.5" width="159.34" height="23" as="geometry" />
        </mxCell>
        <mxCell id="sJYHBMS0tJ9YK230ePcY-2" value="CIDR 10.0.0.0/16" style="text;html=1;strokeColor=none;fillColor=none;align=center;verticalAlign=middle;whiteSpace=wrap;rounded=0;fontStyle=1;fontColor=#0000CC;fontSize=16;" parent="aqYKtT-z00j4YyioXfuS-1" vertex="1">
          <mxGeometry x="-248" y="380" width="132" height="26" as="geometry" />
        </mxCell>
        <mxCell id="c2jrxfSJ30ph8Sp1wg5w-68" style="edgeStyle=orthogonalEdgeStyle;shape=connector;rounded=0;orthogonalLoop=1;jettySize=auto;html=1;entryX=1;entryY=0.25;entryDx=0;entryDy=0;entryPerimeter=0;labelBackgroundColor=default;strokeColor=default;strokeWidth=3;fontFamily=Helvetica;fontSize=11;fontColor=default;endArrow=none;endFill=0;" parent="aqYKtT-z00j4YyioXfuS-1" source="c2jrxfSJ30ph8Sp1wg5w-0" target="aqYKtT-z00j4YyioXfuS-57" edge="1">
          <mxGeometry relative="1" as="geometry" />
        </mxCell>
        <mxCell id="c2jrxfSJ30ph8Sp1wg5w-0" value="Dev TGW Route Table" style="shape=table;startSize=30;container=1;collapsible=1;childLayout=tableLayout;fixedRows=1;rowLines=1;fontStyle=1;align=center;resizeLast=1;labelBackgroundColor=none;strokeColor=#000000;strokeWidth=1;fontSize=16;fillColor=#B3B3B3;perimeterSpacing=0;rounded=0;shadow=0;sketch=0;swimlaneLine=1;swimlaneFillColor=none;right=1;left=1;columnLines=1;top=1;bottom=1;swimlaneHead=1;swimlaneBody=1;horizontal=1;opacity=90;fontColor=#FFFFFF;" parent="aqYKtT-z00j4YyioXfuS-1" vertex="1">
          <mxGeometry x="351.25" y="765.32" width="268.75" height="260.68" as="geometry">
            <mxRectangle x="380" y="210" width="80" height="30" as="alternateBounds" />
          </mxGeometry>
        </mxCell>
        <mxCell id="c2jrxfSJ30ph8Sp1wg5w-1" value="" style="shape=tableRow;horizontal=0;startSize=0;swimlaneHead=0;swimlaneBody=0;fillColor=#FFFFFF;collapsible=0;dropTarget=0;points=[[0,0.5],[1,0.5]];portConstraint=eastwest;top=0;left=1;right=1;bottom=0;labelBackgroundColor=none;strokeColor=#000000;strokeWidth=1;fontSize=16;fontColor=#330000;" parent="c2jrxfSJ30ph8Sp1wg5w-0" vertex="1">
          <mxGeometry y="30" width="268.75" height="32" as="geometry" />
        </mxCell>
        <mxCell id="c2jrxfSJ30ph8Sp1wg5w-2" value="Destination" style="shape=partialRectangle;connectable=0;fillColor=#FFFFFF;top=0;left=1;bottom=1;right=1;fontStyle=1;overflow=hidden;labelBackgroundColor=none;strokeColor=#000000;strokeWidth=1;fontSize=16;fontColor=#330000;align=left;spacingLeft=5;" parent="c2jrxfSJ30ph8Sp1wg5w-1" vertex="1">
          <mxGeometry width="138.75" height="32" as="geometry">
            <mxRectangle width="138.75" height="32" as="alternateBounds" />
          </mxGeometry>
        </mxCell>
        <mxCell id="c2jrxfSJ30ph8Sp1wg5w-3" value="Target" style="shape=partialRectangle;connectable=0;fillColor=#FFFFFF;top=0;left=1;bottom=1;right=1;align=left;spacingLeft=5;fontStyle=1;overflow=hidden;labelBackgroundColor=none;strokeColor=#000000;strokeWidth=1;fontSize=16;fontColor=#330000;" parent="c2jrxfSJ30ph8Sp1wg5w-1" vertex="1">
          <mxGeometry x="138.75" width="130" height="32" as="geometry">
            <mxRectangle width="130" height="32" as="alternateBounds" />
          </mxGeometry>
        </mxCell>
        <mxCell id="c2jrxfSJ30ph8Sp1wg5w-4" value="" style="shape=tableRow;horizontal=0;startSize=0;swimlaneHead=0;swimlaneBody=0;fillColor=#FFFFFF;collapsible=0;dropTarget=0;points=[[0,0.5],[1,0.5]];portConstraint=eastwest;top=0;left=1;right=1;bottom=0;labelBackgroundColor=none;strokeColor=#000000;strokeWidth=1;fontSize=16;fontColor=#330000;swimlaneFillColor=none;" parent="c2jrxfSJ30ph8Sp1wg5w-0" vertex="1">
          <mxGeometry y="62" width="268.75" height="35" as="geometry" />
        </mxCell>
        <mxCell id="c2jrxfSJ30ph8Sp1wg5w-5" value="Dev Spoke VPCs" style="shape=partialRectangle;connectable=0;fillColor=#FFFFFF;top=0;left=1;bottom=1;right=1;editable=1;overflow=hidden;labelBackgroundColor=none;strokeColor=#000000;strokeWidth=1;fontSize=16;fontColor=#330000;align=left;spacingLeft=5;" parent="c2jrxfSJ30ph8Sp1wg5w-4" vertex="1">
          <mxGeometry width="138.75" height="35" as="geometry">
            <mxRectangle width="138.75" height="35" as="alternateBounds" />
          </mxGeometry>
        </mxCell>
        <mxCell id="c2jrxfSJ30ph8Sp1wg5w-6" value="Propagated" style="shape=partialRectangle;connectable=0;fillColor=#FFFFFF;top=0;left=1;bottom=1;right=1;align=left;spacingLeft=5;overflow=hidden;labelBackgroundColor=none;strokeColor=#000000;strokeWidth=1;fontSize=16;fontColor=#330000;" parent="c2jrxfSJ30ph8Sp1wg5w-4" vertex="1">
          <mxGeometry x="138.75" width="130" height="35" as="geometry">
            <mxRectangle width="130" height="35" as="alternateBounds" />
          </mxGeometry>
        </mxCell>
        <mxCell id="c2jrxfSJ30ph8Sp1wg5w-7" value="" style="shape=tableRow;horizontal=0;startSize=0;swimlaneHead=0;swimlaneBody=0;fillColor=#FFFFFF;collapsible=0;dropTarget=0;points=[[0,0.5],[1,0.5]];portConstraint=eastwest;top=0;left=1;right=1;bottom=0;labelBackgroundColor=none;strokeColor=#000000;strokeWidth=1;fontSize=16;fontColor=#330000;" parent="c2jrxfSJ30ph8Sp1wg5w-0" vertex="1">
          <mxGeometry y="97" width="268.75" height="32" as="geometry" />
        </mxCell>
        <mxCell id="c2jrxfSJ30ph8Sp1wg5w-8" value="Shared VPCs" style="shape=partialRectangle;connectable=0;fillColor=#FFFFFF;top=0;left=1;bottom=1;right=1;editable=1;overflow=hidden;labelBackgroundColor=none;strokeColor=#000000;strokeWidth=1;fontSize=16;fontColor=#330000;align=left;spacingLeft=5;" parent="c2jrxfSJ30ph8Sp1wg5w-7" vertex="1">
          <mxGeometry width="138.75" height="32" as="geometry">
            <mxRectangle width="138.75" height="32" as="alternateBounds" />
          </mxGeometry>
        </mxCell>
        <mxCell id="c2jrxfSJ30ph8Sp1wg5w-9" value="Propagated" style="shape=partialRectangle;connectable=0;fillColor=#FFFFFF;top=0;left=1;bottom=1;right=1;align=left;spacingLeft=5;overflow=hidden;labelBackgroundColor=none;strokeColor=#000000;strokeWidth=1;fontSize=16;fontColor=#330000;" parent="c2jrxfSJ30ph8Sp1wg5w-7" vertex="1">
          <mxGeometry x="138.75" width="130" height="32" as="geometry">
            <mxRectangle width="130" height="32" as="alternateBounds" />
          </mxGeometry>
        </mxCell>
        <mxCell id="c2jrxfSJ30ph8Sp1wg5w-10" value="" style="shape=tableRow;horizontal=0;startSize=0;swimlaneHead=0;swimlaneBody=0;fillColor=#FFFFFF;collapsible=0;dropTarget=0;points=[[0,0.5],[1,0.5]];portConstraint=eastwest;top=0;left=1;right=1;bottom=0;labelBackgroundColor=none;strokeColor=#000000;strokeWidth=1;fontSize=16;fontColor=#330000;" parent="c2jrxfSJ30ph8Sp1wg5w-0" vertex="1">
          <mxGeometry y="129" width="268.75" height="32" as="geometry" />
        </mxCell>
        <mxCell id="c2jrxfSJ30ph8Sp1wg5w-11" value="192.168.0.0/24" style="shape=partialRectangle;connectable=0;fillColor=#FFFFFF;top=0;left=1;bottom=1;right=1;editable=1;overflow=hidden;labelBackgroundColor=none;strokeColor=#000000;strokeWidth=1;fontSize=16;fontColor=#330000;fontStyle=0;align=left;spacingLeft=5;" parent="c2jrxfSJ30ph8Sp1wg5w-10" vertex="1">
          <mxGeometry width="138.75" height="32" as="geometry">
            <mxRectangle width="138.75" height="32" as="alternateBounds" />
          </mxGeometry>
        </mxCell>
        <mxCell id="c2jrxfSJ30ph8Sp1wg5w-12" value="Inspection VPC" style="shape=partialRectangle;connectable=0;fillColor=#FFFFFF;top=0;left=1;bottom=1;right=1;align=left;spacingLeft=5;overflow=hidden;labelBackgroundColor=none;strokeColor=#000000;strokeWidth=1;fontSize=16;fontColor=#330000;fontStyle=0" parent="c2jrxfSJ30ph8Sp1wg5w-10" vertex="1">
          <mxGeometry x="138.75" width="130" height="32" as="geometry">
            <mxRectangle width="130" height="32" as="alternateBounds" />
          </mxGeometry>
        </mxCell>
        <mxCell id="c2jrxfSJ30ph8Sp1wg5w-13" value="" style="shape=tableRow;horizontal=0;startSize=0;swimlaneHead=0;swimlaneBody=0;fillColor=#FFFFFF;collapsible=0;dropTarget=0;points=[[0,0.5],[1,0.5]];portConstraint=eastwest;top=0;left=1;right=1;bottom=0;labelBackgroundColor=none;strokeColor=#000000;strokeWidth=1;fontSize=16;fontColor=#330000;" parent="c2jrxfSJ30ph8Sp1wg5w-0" vertex="1">
          <mxGeometry y="161" width="268.75" height="33" as="geometry" />
        </mxCell>
        <mxCell id="c2jrxfSJ30ph8Sp1wg5w-14" value="10.1.0.0/16" style="shape=partialRectangle;connectable=0;fillColor=#FFFFFF;top=0;left=1;bottom=1;right=1;editable=1;overflow=hidden;labelBackgroundColor=none;strokeColor=#000000;strokeWidth=1;fontSize=16;fontColor=#330000;align=left;spacingLeft=5;" parent="c2jrxfSJ30ph8Sp1wg5w-13" vertex="1">
          <mxGeometry width="138.75" height="33" as="geometry">
            <mxRectangle width="138.75" height="33" as="alternateBounds" />
          </mxGeometry>
        </mxCell>
        <mxCell id="c2jrxfSJ30ph8Sp1wg5w-15" value="Inspection VPC" style="shape=partialRectangle;connectable=0;fillColor=#FFFFFF;top=0;left=1;bottom=1;right=1;align=left;spacingLeft=5;overflow=hidden;labelBackgroundColor=none;strokeColor=#000000;strokeWidth=1;fontSize=16;fontColor=#330000;" parent="c2jrxfSJ30ph8Sp1wg5w-13" vertex="1">
          <mxGeometry x="138.75" width="130" height="33" as="geometry">
            <mxRectangle width="130" height="33" as="alternateBounds" />
          </mxGeometry>
        </mxCell>
        <mxCell id="c2jrxfSJ30ph8Sp1wg5w-16" value="" style="shape=tableRow;horizontal=0;startSize=0;swimlaneHead=0;swimlaneBody=0;fillColor=#FFFFFF;collapsible=0;dropTarget=0;points=[[0,0.5],[1,0.5]];portConstraint=eastwest;top=0;left=1;right=1;bottom=0;labelBackgroundColor=none;strokeColor=#000000;strokeWidth=1;fontSize=16;fontColor=#330000;" parent="c2jrxfSJ30ph8Sp1wg5w-0" vertex="1">
          <mxGeometry y="194" width="268.75" height="33" as="geometry" />
        </mxCell>
        <mxCell id="c2jrxfSJ30ph8Sp1wg5w-17" value="RFC1918 CIDR" style="shape=partialRectangle;connectable=0;fillColor=#FFFFFF;top=0;left=1;bottom=1;right=1;editable=1;overflow=hidden;labelBackgroundColor=none;strokeColor=#000000;strokeWidth=1;fontSize=16;fontColor=#330000;align=left;spacingLeft=5;" parent="c2jrxfSJ30ph8Sp1wg5w-16" vertex="1">
          <mxGeometry width="138.75" height="33" as="geometry">
            <mxRectangle width="138.75" height="33" as="alternateBounds" />
          </mxGeometry>
        </mxCell>
        <mxCell id="c2jrxfSJ30ph8Sp1wg5w-18" value="Blackhole" style="shape=partialRectangle;connectable=0;fillColor=#FFFFFF;top=0;left=1;bottom=1;right=1;align=left;spacingLeft=5;overflow=hidden;labelBackgroundColor=none;strokeColor=#000000;strokeWidth=1;fontSize=16;fontColor=#330000;" parent="c2jrxfSJ30ph8Sp1wg5w-16" vertex="1">
          <mxGeometry x="138.75" width="130" height="33" as="geometry">
            <mxRectangle width="130" height="33" as="alternateBounds" />
          </mxGeometry>
        </mxCell>
        <mxCell id="c2jrxfSJ30ph8Sp1wg5w-59" value="" style="shape=tableRow;horizontal=0;startSize=0;swimlaneHead=0;swimlaneBody=0;fillColor=#FFFFFF;collapsible=0;dropTarget=0;points=[[0,0.5],[1,0.5]];portConstraint=eastwest;top=0;left=1;right=1;bottom=0;labelBackgroundColor=none;strokeColor=#000000;strokeWidth=1;fontSize=16;fontColor=#330000;" parent="c2jrxfSJ30ph8Sp1wg5w-0" vertex="1">
          <mxGeometry y="227" width="268.75" height="33" as="geometry" />
        </mxCell>
        <mxCell id="c2jrxfSJ30ph8Sp1wg5w-60" value="0.0.0.0/0" style="shape=partialRectangle;connectable=0;fillColor=#FFFFFF;top=0;left=1;bottom=1;right=1;editable=1;overflow=hidden;labelBackgroundColor=none;strokeColor=#000000;strokeWidth=1;fontSize=16;fontColor=#330000;align=left;spacingLeft=5;" parent="c2jrxfSJ30ph8Sp1wg5w-59" vertex="1">
          <mxGeometry width="138.75" height="33" as="geometry">
            <mxRectangle width="138.75" height="33" as="alternateBounds" />
          </mxGeometry>
        </mxCell>
        <mxCell id="c2jrxfSJ30ph8Sp1wg5w-61" value="Inspection VPC" style="shape=partialRectangle;connectable=0;fillColor=#FFFFFF;top=0;left=1;bottom=1;right=1;align=left;spacingLeft=5;overflow=hidden;labelBackgroundColor=none;strokeColor=#000000;strokeWidth=1;fontSize=16;fontColor=#330000;" parent="c2jrxfSJ30ph8Sp1wg5w-59" vertex="1">
          <mxGeometry x="138.75" width="130" height="33" as="geometry">
            <mxRectangle width="130" height="33" as="alternateBounds" />
          </mxGeometry>
        </mxCell>
        <mxCell id="c2jrxfSJ30ph8Sp1wg5w-23" value="AWS&amp;nbsp;" style="points=[[0,0],[0.25,0],[0.5,0],[0.75,0],[1,0],[1,0.25],[1,0.5],[1,0.75],[1,1],[0.75,1],[0.5,1],[0.25,1],[0,1],[0,0.75],[0,0.5],[0,0.25]];outlineConnect=0;gradientColor=none;html=1;whiteSpace=wrap;fontSize=12;fontStyle=0;shape=mxgraph.aws4.group;grIcon=mxgraph.aws4.group_aws_cloud;strokeColor=#232F3E;verticalAlign=top;align=left;spacingLeft=30;fontColor=#232F3E;dashed=0;labelBackgroundColor=#ffffff;" parent="aqYKtT-z00j4YyioXfuS-1" vertex="1">
          <mxGeometry x="848.75" y="716.5" width="658.3" height="266" as="geometry" />
        </mxCell>
        <mxCell id="c2jrxfSJ30ph8Sp1wg5w-24" value="AWS&amp;nbsp;" style="points=[[0,0],[0.25,0],[0.5,0],[0.75,0],[1,0],[1,0.25],[1,0.5],[1,0.75],[1,1],[0.75,1],[0.5,1],[0.25,1],[0,1],[0,0.75],[0,0.5],[0,0.25]];outlineConnect=0;gradientColor=none;html=1;whiteSpace=wrap;fontSize=12;fontStyle=0;shape=mxgraph.aws4.group;grIcon=mxgraph.aws4.group_aws_cloud;strokeColor=#232F3E;verticalAlign=top;align=left;spacingLeft=30;fontColor=#232F3E;dashed=0;labelBackgroundColor=#ffffff;" parent="aqYKtT-z00j4YyioXfuS-1" vertex="1">
          <mxGeometry x="828.75" y="701.5" width="663.3" height="261" as="geometry" />
        </mxCell>
        <mxCell id="c2jrxfSJ30ph8Sp1wg5w-25" value="Dev Spoke Account" style="points=[[0,0],[0.25,0],[0.5,0],[0.75,0],[1,0],[1,0.25],[1,0.5],[1,0.75],[1,1],[0.75,1],[0.5,1],[0.25,1],[0,1],[0,0.75],[0,0.5],[0,0.25]];outlineConnect=0;gradientColor=none;html=1;whiteSpace=wrap;fontSize=12;fontStyle=0;shape=mxgraph.aws4.group;grIcon=mxgraph.aws4.group_aws_cloud;strokeColor=#232F3E;verticalAlign=top;align=left;spacingLeft=30;fontColor=#232F3E;dashed=0;labelBackgroundColor=#ffffff;" parent="aqYKtT-z00j4YyioXfuS-1" vertex="1">
          <mxGeometry x="808.75" y="686" width="668.5" height="256.5" as="geometry" />
        </mxCell>
        <mxCell id="c2jrxfSJ30ph8Sp1wg5w-26" value="&lt;font color=&quot;#000000&quot;&gt;VPC&lt;/font&gt;" style="points=[[0,0],[0.25,0],[0.5,0],[0.75,0],[1,0],[1,0.25],[1,0.5],[1,0.75],[1,1],[0.75,1],[0.5,1],[0.25,1],[0,1],[0,0.75],[0,0.5],[0,0.25]];outlineConnect=0;html=1;whiteSpace=wrap;fontSize=12;fontStyle=0;shape=mxgraph.aws4.group;grIcon=mxgraph.aws4.group_vpc;strokeColor=#000000;verticalAlign=top;align=left;spacingLeft=30;dashed=0;fillColor=none;fontColor=#AAB7B8;" parent="aqYKtT-z00j4YyioXfuS-1" vertex="1">
          <mxGeometry x="838.75" y="721" width="618.5" height="201.5" as="geometry" />
        </mxCell>
        <mxCell id="c2jrxfSJ30ph8Sp1wg5w-27" value="VPC Public Route Table" style="shape=table;startSize=30;container=1;collapsible=1;childLayout=tableLayout;fixedRows=1;rowLines=1;fontStyle=1;align=center;resizeLast=1;labelBackgroundColor=none;strokeColor=#000000;strokeWidth=1;fontSize=16;fillColor=#000000;perimeterSpacing=0;rounded=0;shadow=0;sketch=0;swimlaneLine=1;swimlaneFillColor=none;right=1;left=1;columnLines=1;top=1;bottom=1;swimlaneHead=1;swimlaneBody=1;horizontal=1;opacity=70;fontColor=#FFFFFF;" parent="aqYKtT-z00j4YyioXfuS-1" vertex="1">
          <mxGeometry x="1561" y="528" width="200" height="130" as="geometry">
            <mxRectangle x="380" y="210" width="80" height="30" as="alternateBounds" />
          </mxGeometry>
        </mxCell>
        <mxCell id="c2jrxfSJ30ph8Sp1wg5w-28" value="" style="shape=tableRow;horizontal=0;startSize=0;swimlaneHead=0;swimlaneBody=0;fillColor=#FFFFFF;collapsible=0;dropTarget=0;points=[[0,0.5],[1,0.5]];portConstraint=eastwest;top=0;left=1;right=1;bottom=0;labelBackgroundColor=none;strokeColor=#000000;strokeWidth=1;fontSize=16;fontColor=#330000;" parent="c2jrxfSJ30ph8Sp1wg5w-27" vertex="1">
          <mxGeometry y="30" width="200" height="32" as="geometry" />
        </mxCell>
        <mxCell id="c2jrxfSJ30ph8Sp1wg5w-29" value="Destination" style="shape=partialRectangle;connectable=0;fillColor=#FFFFFF;top=0;left=1;bottom=1;right=1;fontStyle=1;overflow=hidden;labelBackgroundColor=none;strokeColor=#000000;strokeWidth=1;fontSize=16;fontColor=#330000;" parent="c2jrxfSJ30ph8Sp1wg5w-28" vertex="1">
          <mxGeometry width="133.5" height="32" as="geometry">
            <mxRectangle width="133.5" height="32" as="alternateBounds" />
          </mxGeometry>
        </mxCell>
        <mxCell id="c2jrxfSJ30ph8Sp1wg5w-30" value="Target" style="shape=partialRectangle;connectable=0;fillColor=#FFFFFF;top=0;left=1;bottom=1;right=1;align=left;spacingLeft=6;fontStyle=1;overflow=hidden;labelBackgroundColor=none;strokeColor=#000000;strokeWidth=1;fontSize=16;fontColor=#330000;" parent="c2jrxfSJ30ph8Sp1wg5w-28" vertex="1">
          <mxGeometry x="133.5" width="66.5" height="32" as="geometry">
            <mxRectangle width="66.5" height="32" as="alternateBounds" />
          </mxGeometry>
        </mxCell>
        <mxCell id="c2jrxfSJ30ph8Sp1wg5w-31" value="" style="shape=tableRow;horizontal=0;startSize=0;swimlaneHead=0;swimlaneBody=0;fillColor=#FFFFFF;collapsible=0;dropTarget=0;points=[[0,0.5],[1,0.5]];portConstraint=eastwest;top=0;left=1;right=1;bottom=0;labelBackgroundColor=none;strokeColor=#000000;strokeWidth=1;fontSize=16;fontColor=#330000;swimlaneFillColor=none;" parent="c2jrxfSJ30ph8Sp1wg5w-27" vertex="1">
          <mxGeometry y="62" width="200" height="35" as="geometry" />
        </mxCell>
        <mxCell id="c2jrxfSJ30ph8Sp1wg5w-32" value="VPC" style="shape=partialRectangle;connectable=0;fillColor=#FFFFFF;top=0;left=1;bottom=1;right=1;editable=1;overflow=hidden;labelBackgroundColor=none;strokeColor=#000000;strokeWidth=1;fontSize=16;fontColor=#330000;" parent="c2jrxfSJ30ph8Sp1wg5w-31" vertex="1">
          <mxGeometry width="133.5" height="35" as="geometry">
            <mxRectangle width="133.5" height="35" as="alternateBounds" />
          </mxGeometry>
        </mxCell>
        <mxCell id="c2jrxfSJ30ph8Sp1wg5w-33" value="Local" style="shape=partialRectangle;connectable=0;fillColor=#FFFFFF;top=0;left=1;bottom=1;right=1;align=center;spacingLeft=6;overflow=hidden;labelBackgroundColor=none;strokeColor=#000000;strokeWidth=1;fontSize=16;fontColor=#330000;" parent="c2jrxfSJ30ph8Sp1wg5w-31" vertex="1">
          <mxGeometry x="133.5" width="66.5" height="35" as="geometry">
            <mxRectangle width="66.5" height="35" as="alternateBounds" />
          </mxGeometry>
        </mxCell>
        <mxCell id="c2jrxfSJ30ph8Sp1wg5w-34" value="" style="shape=tableRow;horizontal=0;startSize=0;swimlaneHead=0;swimlaneBody=0;fillColor=#FFFFFF;collapsible=0;dropTarget=0;points=[[0,0.5],[1,0.5]];portConstraint=eastwest;top=0;left=1;right=1;bottom=0;labelBackgroundColor=none;strokeColor=#000000;strokeWidth=1;fontSize=16;fontColor=#330000;" parent="c2jrxfSJ30ph8Sp1wg5w-27" vertex="1">
          <mxGeometry y="97" width="200" height="33" as="geometry" />
        </mxCell>
        <mxCell id="c2jrxfSJ30ph8Sp1wg5w-35" value="0.0.0.0/0" style="shape=partialRectangle;connectable=0;fillColor=#FFFFFF;top=0;left=1;bottom=1;right=1;editable=1;overflow=hidden;labelBackgroundColor=none;strokeColor=#000000;strokeWidth=1;fontSize=16;fontColor=#330000;" parent="c2jrxfSJ30ph8Sp1wg5w-34" vertex="1">
          <mxGeometry width="133.5" height="33" as="geometry">
            <mxRectangle width="133.5" height="33" as="alternateBounds" />
          </mxGeometry>
        </mxCell>
        <mxCell id="c2jrxfSJ30ph8Sp1wg5w-36" value="IGW" style="shape=partialRectangle;connectable=0;fillColor=#FFFFFF;top=0;left=1;bottom=1;right=1;align=center;spacingLeft=6;overflow=hidden;labelBackgroundColor=none;strokeColor=#000000;strokeWidth=1;fontSize=16;fontColor=#330000;" parent="c2jrxfSJ30ph8Sp1wg5w-34" vertex="1">
          <mxGeometry x="133.5" width="66.5" height="33" as="geometry">
            <mxRectangle width="66.5" height="33" as="alternateBounds" />
          </mxGeometry>
        </mxCell>
        <mxCell id="c2jrxfSJ30ph8Sp1wg5w-37" value="VPC Private Route Table" style="shape=table;startSize=30;container=1;collapsible=1;childLayout=tableLayout;fixedRows=1;rowLines=1;fontStyle=1;align=center;resizeLast=1;labelBackgroundColor=none;strokeColor=#000000;strokeWidth=1;fontSize=16;fillColor=#000000;perimeterSpacing=0;rounded=0;shadow=0;sketch=0;swimlaneLine=1;swimlaneFillColor=none;right=1;left=1;columnLines=1;top=1;bottom=1;swimlaneHead=1;swimlaneBody=1;horizontal=1;opacity=70;fontColor=#FFFFFF;" parent="aqYKtT-z00j4YyioXfuS-1" vertex="1">
          <mxGeometry x="1561" y="678" width="200" height="130" as="geometry">
            <mxRectangle x="380" y="210" width="80" height="30" as="alternateBounds" />
          </mxGeometry>
        </mxCell>
        <mxCell id="c2jrxfSJ30ph8Sp1wg5w-38" value="" style="shape=tableRow;horizontal=0;startSize=0;swimlaneHead=0;swimlaneBody=0;fillColor=#FFFFFF;collapsible=0;dropTarget=0;points=[[0,0.5],[1,0.5]];portConstraint=eastwest;top=0;left=1;right=1;bottom=0;labelBackgroundColor=none;strokeColor=#000000;strokeWidth=1;fontSize=16;fontColor=#330000;" parent="c2jrxfSJ30ph8Sp1wg5w-37" vertex="1">
          <mxGeometry y="30" width="200" height="32" as="geometry" />
        </mxCell>
        <mxCell id="c2jrxfSJ30ph8Sp1wg5w-39" value="Destination" style="shape=partialRectangle;connectable=0;fillColor=#FFFFFF;top=0;left=1;bottom=1;right=1;fontStyle=1;overflow=hidden;labelBackgroundColor=none;strokeColor=#000000;strokeWidth=1;fontSize=16;fontColor=#330000;" parent="c2jrxfSJ30ph8Sp1wg5w-38" vertex="1">
          <mxGeometry width="133.5" height="32" as="geometry">
            <mxRectangle width="133.5" height="32" as="alternateBounds" />
          </mxGeometry>
        </mxCell>
        <mxCell id="c2jrxfSJ30ph8Sp1wg5w-40" value="Target" style="shape=partialRectangle;connectable=0;fillColor=#FFFFFF;top=0;left=1;bottom=1;right=1;align=left;spacingLeft=6;fontStyle=1;overflow=hidden;labelBackgroundColor=none;strokeColor=#000000;strokeWidth=1;fontSize=16;fontColor=#330000;" parent="c2jrxfSJ30ph8Sp1wg5w-38" vertex="1">
          <mxGeometry x="133.5" width="66.5" height="32" as="geometry">
            <mxRectangle width="66.5" height="32" as="alternateBounds" />
          </mxGeometry>
        </mxCell>
        <mxCell id="c2jrxfSJ30ph8Sp1wg5w-41" value="" style="shape=tableRow;horizontal=0;startSize=0;swimlaneHead=0;swimlaneBody=0;fillColor=#FFFFFF;collapsible=0;dropTarget=0;points=[[0,0.5],[1,0.5]];portConstraint=eastwest;top=0;left=1;right=1;bottom=0;labelBackgroundColor=none;strokeColor=#000000;strokeWidth=1;fontSize=16;fontColor=#330000;swimlaneFillColor=none;" parent="c2jrxfSJ30ph8Sp1wg5w-37" vertex="1">
          <mxGeometry y="62" width="200" height="35" as="geometry" />
        </mxCell>
        <mxCell id="c2jrxfSJ30ph8Sp1wg5w-42" value="VPC" style="shape=partialRectangle;connectable=0;fillColor=#FFFFFF;top=0;left=1;bottom=1;right=1;editable=1;overflow=hidden;labelBackgroundColor=none;strokeColor=#000000;strokeWidth=1;fontSize=16;fontColor=#330000;" parent="c2jrxfSJ30ph8Sp1wg5w-41" vertex="1">
          <mxGeometry width="133.5" height="35" as="geometry">
            <mxRectangle width="133.5" height="35" as="alternateBounds" />
          </mxGeometry>
        </mxCell>
        <mxCell id="c2jrxfSJ30ph8Sp1wg5w-43" value="Local" style="shape=partialRectangle;connectable=0;fillColor=#FFFFFF;top=0;left=1;bottom=1;right=1;align=center;spacingLeft=6;overflow=hidden;labelBackgroundColor=none;strokeColor=#000000;strokeWidth=1;fontSize=16;fontColor=#330000;" parent="c2jrxfSJ30ph8Sp1wg5w-41" vertex="1">
          <mxGeometry x="133.5" width="66.5" height="35" as="geometry">
            <mxRectangle width="66.5" height="35" as="alternateBounds" />
          </mxGeometry>
        </mxCell>
        <mxCell id="c2jrxfSJ30ph8Sp1wg5w-44" value="" style="shape=tableRow;horizontal=0;startSize=0;swimlaneHead=0;swimlaneBody=0;fillColor=#FFFFFF;collapsible=0;dropTarget=0;points=[[0,0.5],[1,0.5]];portConstraint=eastwest;top=0;left=1;right=1;bottom=0;labelBackgroundColor=none;strokeColor=#000000;strokeWidth=1;fontSize=16;fontColor=#330000;" parent="c2jrxfSJ30ph8Sp1wg5w-37" vertex="1">
          <mxGeometry y="97" width="200" height="33" as="geometry" />
        </mxCell>
        <mxCell id="c2jrxfSJ30ph8Sp1wg5w-45" value="0.0.0.0/0" style="shape=partialRectangle;connectable=0;fillColor=#FFFFFF;top=0;left=1;bottom=1;right=1;editable=1;overflow=hidden;labelBackgroundColor=none;strokeColor=#000000;strokeWidth=1;fontSize=16;fontColor=#330000;" parent="c2jrxfSJ30ph8Sp1wg5w-44" vertex="1">
          <mxGeometry width="133.5" height="33" as="geometry">
            <mxRectangle width="133.5" height="33" as="alternateBounds" />
          </mxGeometry>
        </mxCell>
        <mxCell id="c2jrxfSJ30ph8Sp1wg5w-46" value="TGW " style="shape=partialRectangle;connectable=0;fillColor=#FFFFFF;top=0;left=1;bottom=1;right=1;align=center;spacingLeft=6;overflow=hidden;labelBackgroundColor=none;strokeColor=#000000;strokeWidth=1;fontSize=16;fontColor=#330000;" parent="c2jrxfSJ30ph8Sp1wg5w-44" vertex="1">
          <mxGeometry x="133.5" width="66.5" height="33" as="geometry">
            <mxRectangle width="66.5" height="33" as="alternateBounds" />
          </mxGeometry>
        </mxCell>
        <mxCell id="c2jrxfSJ30ph8Sp1wg5w-53" style="edgeStyle=orthogonalEdgeStyle;rounded=0;orthogonalLoop=1;jettySize=auto;html=1;endArrow=classic;endFill=1;strokeColor=#000000;strokeWidth=3;fillColor=#f8cecc;entryX=1;entryY=0.5;entryDx=0;entryDy=0;" parent="aqYKtT-z00j4YyioXfuS-1" target="aqYKtT-z00j4YyioXfuS-110" edge="1">
          <mxGeometry relative="1" as="geometry">
            <mxPoint x="630" y="885" as="targetPoint" />
            <Array as="points">
              <mxPoint x="839" y="559" />
              <mxPoint x="729" y="559" />
            </Array>
            <mxPoint x="839" y="559" as="sourcePoint" />
          </mxGeometry>
        </mxCell>
        <mxCell id="c2jrxfSJ30ph8Sp1wg5w-54" value="association" style="edgeLabel;html=1;align=center;verticalAlign=middle;resizable=0;points=[];fontSize=14;" parent="c2jrxfSJ30ph8Sp1wg5w-53" vertex="1" connectable="0">
          <mxGeometry x="-0.2062" y="-1" relative="1" as="geometry">
            <mxPoint x="-53" y="-1" as="offset" />
          </mxGeometry>
        </mxCell>
        <mxCell id="kgRzprYm58ZYlMdNWh1N-12" value="association" style="edgeLabel;html=1;align=center;verticalAlign=middle;resizable=0;points=[];fontSize=14;" parent="c2jrxfSJ30ph8Sp1wg5w-53" vertex="1" connectable="0">
          <mxGeometry x="-0.2062" y="-1" relative="1" as="geometry">
            <mxPoint x="-626" y="119" as="offset" />
          </mxGeometry>
        </mxCell>
        <mxCell id="aqYKtT-z00j4YyioXfuS-52" style="edgeStyle=orthogonalEdgeStyle;rounded=0;orthogonalLoop=1;jettySize=auto;html=1;endArrow=classic;endFill=1;strokeColor=#FF0080;strokeWidth=3;fillColor=#ffe6cc;entryX=0;entryY=0.5;entryDx=0;entryDy=0;jumpStyle=arc;" parent="aqYKtT-z00j4YyioXfuS-1" source="aqYKtT-z00j4YyioXfuS-53" target="1VweFIOlZkuIM1G34YTw-54" edge="1">
          <mxGeometry relative="1" as="geometry">
            <mxPoint x="437.33" y="229.5" as="targetPoint" />
            <Array as="points">
              <mxPoint x="742" y="354" />
              <mxPoint x="742" y="499" />
            </Array>
          </mxGeometry>
        </mxCell>
        <mxCell id="c2jrxfSJ30ph8Sp1wg5w-48" value="Public subnet" style="points=[[0,0],[0.25,0],[0.5,0],[0.75,0],[1,0],[1,0.25],[1,0.5],[1,0.75],[1,1],[0.75,1],[0.5,1],[0.25,1],[0,1],[0,0.75],[0,0.5],[0,0.25]];outlineConnect=0;gradientColor=none;html=1;whiteSpace=wrap;fontSize=12;fontStyle=0;container=1;pointerEvents=0;collapsible=0;recursiveResize=0;shape=mxgraph.aws4.group;grIcon=mxgraph.aws4.group_security_group;grStroke=0;strokeColor=#248814;fillColor=#E9F3E6;verticalAlign=top;align=left;spacingLeft=30;fontColor=#248814;dashed=0;" parent="aqYKtT-z00j4YyioXfuS-1" vertex="1">
          <mxGeometry x="858.75" y="762" width="260" height="140.5" as="geometry" />
        </mxCell>
        <mxCell id="c2jrxfSJ30ph8Sp1wg5w-49" value="WAF" style="points=[[0,0,0],[0.25,0,0],[0.5,0,0],[0.75,0,0],[1,0,0],[0,1,0],[0.25,1,0],[0.5,1,0],[0.75,1,0],[1,1,0],[0,0.25,0],[0,0.5,0],[0,0.75,0],[1,0.25,0],[1,0.5,0],[1,0.75,0]];outlineConnect=0;fontColor=#232F3E;gradientColor=#F54749;gradientDirection=north;fillColor=#C7131F;strokeColor=#ffffff;dashed=0;verticalLabelPosition=bottom;verticalAlign=top;align=center;html=1;fontSize=12;fontStyle=0;aspect=fixed;shape=mxgraph.aws4.resourceIcon;resIcon=mxgraph.aws4.waf;labelBackgroundColor=#ffffff;" parent="c2jrxfSJ30ph8Sp1wg5w-48" vertex="1">
          <mxGeometry x="30" y="34.5" width="78" height="78" as="geometry" />
        </mxCell>
        <mxCell id="c2jrxfSJ30ph8Sp1wg5w-50" value="App Load Balancer" style="sketch=0;outlineConnect=0;fontColor=#232F3E;gradientColor=none;fillColor=#4D27AA;strokeColor=none;dashed=0;verticalLabelPosition=bottom;verticalAlign=top;align=center;html=1;fontSize=12;fontStyle=0;aspect=fixed;pointerEvents=1;shape=mxgraph.aws4.application_load_balancer;" parent="c2jrxfSJ30ph8Sp1wg5w-48" vertex="1">
          <mxGeometry x="150" y="31" width="78" height="78" as="geometry" />
        </mxCell>
        <mxCell id="c2jrxfSJ30ph8Sp1wg5w-55" style="edgeStyle=orthogonalEdgeStyle;rounded=0;orthogonalLoop=1;jettySize=auto;html=1;endArrow=classic;endFill=1;strokeColor=#FF0080;strokeWidth=3;fillColor=#ffe6cc;jumpStyle=arc;entryX=0;entryY=0.5;entryDx=0;entryDy=0;" parent="aqYKtT-z00j4YyioXfuS-1" target="c2jrxfSJ30ph8Sp1wg5w-48" edge="1">
          <mxGeometry relative="1" as="geometry">
            <mxPoint x="861" y="835" as="targetPoint" />
            <mxPoint x="742" y="498" as="sourcePoint" />
            <Array as="points">
              <mxPoint x="742" y="832" />
            </Array>
          </mxGeometry>
        </mxCell>
        <mxCell id="kgRzprYm58ZYlMdNWh1N-6" value="Centralized Endpoints VPC" style="points=[[0,0],[0.25,0],[0.5,0],[0.75,0],[1,0],[1,0.25],[1,0.5],[1,0.75],[1,1],[0.75,1],[0.5,1],[0.25,1],[0,1],[0,0.75],[0,0.5],[0,0.25]];outlineConnect=0;gradientColor=none;html=1;whiteSpace=wrap;fontSize=12;fontStyle=0;shape=mxgraph.aws4.group;grIcon=mxgraph.aws4.group_vpc;fillColor=default;verticalAlign=top;align=left;spacingLeft=30;fontColor=#000000;dashed=0;strokeColor=#4D4D4D;" parent="aqYKtT-z00j4YyioXfuS-1" vertex="1">
          <mxGeometry x="226" y="1382" width="390" height="215" as="geometry" />
        </mxCell>
        <mxCell id="kgRzprYm58ZYlMdNWh1N-7" value="" style="rounded=0;whiteSpace=wrap;html=1;shadow=0;labelBackgroundColor=none;sketch=0;strokeColor=#000000;strokeWidth=1;fontSize=16;fontColor=#330000;fillColor=none;opacity=70;dashed=1;labelPosition=center;verticalLabelPosition=bottom;align=center;verticalAlign=top;" parent="aqYKtT-z00j4YyioXfuS-1" vertex="1">
          <mxGeometry x="243.33" y="1422" width="357" height="154" as="geometry" />
        </mxCell>
        <mxCell id="kgRzprYm58ZYlMdNWh1N-8" style="edgeStyle=none;rounded=0;orthogonalLoop=1;jettySize=auto;html=1;exitX=1;exitY=0.5;exitDx=0;exitDy=0;strokeColor=#0000FF;strokeWidth=3;fontSize=16;fontColor=#FFFFFF;endArrow=none;endFill=0;fillColor=default;" parent="aqYKtT-z00j4YyioXfuS-1" edge="1">
          <mxGeometry relative="1" as="geometry">
            <mxPoint x="636" y="1362" as="sourcePoint" />
            <mxPoint x="636" y="1362" as="targetPoint" />
          </mxGeometry>
        </mxCell>
        <mxCell id="kgRzprYm58ZYlMdNWh1N-14" value="VPC Endpoints&lt;br&gt;(optional)" style="sketch=0;outlineConnect=0;fontColor=#232F3E;gradientColor=none;fillColor=#4D27AA;strokeColor=none;dashed=0;verticalLabelPosition=bottom;verticalAlign=top;align=center;html=1;fontSize=12;fontStyle=0;aspect=fixed;pointerEvents=1;shape=mxgraph.aws4.endpoints;opacity=50;" parent="aqYKtT-z00j4YyioXfuS-1" vertex="1">
          <mxGeometry x="271" y="1445.5" width="78" height="78" as="geometry" />
        </mxCell>
        <mxCell id="kgRzprYm58ZYlMdNWh1N-15" value="Route 53 Resolver&lt;br&gt;Outbound Endpoint" style="sketch=0;outlineConnect=0;fontColor=#232F3E;gradientColor=none;fillColor=#4D27AA;strokeColor=none;dashed=0;verticalLabelPosition=bottom;verticalAlign=top;align=center;html=1;fontSize=12;fontStyle=0;aspect=fixed;pointerEvents=1;shape=mxgraph.aws4.route_53_resolver;" parent="aqYKtT-z00j4YyioXfuS-1" vertex="1">
          <mxGeometry x="377.75" y="1445.5" width="78" height="78" as="geometry" />
        </mxCell>
        <mxCell id="kgRzprYm58ZYlMdNWh1N-16" value="Route 53 Resolver&lt;br style=&quot;border-color: var(--border-color);&quot;&gt;Inbound Endpoint" style="sketch=0;outlineConnect=0;fontColor=#232F3E;gradientColor=none;fillColor=#4D27AA;strokeColor=none;dashed=0;verticalLabelPosition=bottom;verticalAlign=top;align=center;html=1;fontSize=12;fontStyle=0;aspect=fixed;pointerEvents=1;shape=mxgraph.aws4.route_53_resolver;" parent="aqYKtT-z00j4YyioXfuS-1" vertex="1">
          <mxGeometry x="487.75" y="1445.5" width="78" height="78" as="geometry" />
        </mxCell>
        <mxCell id="kgRzprYm58ZYlMdNWh1N-17" style="edgeStyle=orthogonalEdgeStyle;rounded=0;orthogonalLoop=1;jettySize=auto;html=1;entryX=0.25;entryY=0;entryDx=0;entryDy=0;strokeColor=#000000;strokeWidth=3;fontSize=16;fontColor=#330000;endArrow=none;endFill=0;startArrow=classic;startFill=1;exitX=0;exitY=0.5;exitDx=0;exitDy=0;" parent="aqYKtT-z00j4YyioXfuS-1" source="1VweFIOlZkuIM1G34YTw-104" target="kgRzprYm58ZYlMdNWh1N-6" edge="1">
          <mxGeometry relative="1" as="geometry">
            <mxPoint x="630" y="1308" as="sourcePoint" />
            <mxPoint x="818" y="1456" as="targetPoint" />
          </mxGeometry>
        </mxCell>
        <mxCell id="kgRzprYm58ZYlMdNWh1N-18" value="association" style="edgeLabel;html=1;align=center;verticalAlign=middle;resizable=0;points=[];fontSize=14;" parent="kgRzprYm58ZYlMdNWh1N-17" vertex="1" connectable="0">
          <mxGeometry x="-0.4907" relative="1" as="geometry">
            <mxPoint x="-25" y="26" as="offset" />
          </mxGeometry>
        </mxCell>
        <mxCell id="v8bomN9b3jaTFsUAjUa0-1" value="Private subnet" style="points=[[0,0],[0.25,0],[0.5,0],[0.75,0],[1,0],[1,0.25],[1,0.5],[1,0.75],[1,1],[0.75,1],[0.5,1],[0.25,1],[0,1],[0,0.75],[0,0.5],[0,0.25]];outlineConnect=0;gradientColor=none;html=1;whiteSpace=wrap;fontSize=12;fontStyle=0;container=1;pointerEvents=0;collapsible=0;recursiveResize=0;shape=mxgraph.aws4.group;grIcon=mxgraph.aws4.group_security_group;grStroke=0;strokeColor=#147EBA;fillColor=#E6F2F8;verticalAlign=top;align=left;spacingLeft=30;fontColor=#147EBA;dashed=0;" parent="aqYKtT-z00j4YyioXfuS-1" vertex="1">
          <mxGeometry x="1298" y="429" width="140" height="139" as="geometry" />
        </mxCell>
        <mxCell id="aqYKtT-z00j4YyioXfuS-50" value="RDS" style="points=[[0,0,0],[0.25,0,0],[0.5,0,0],[0.75,0,0],[1,0,0],[0,1,0],[0.25,1,0],[0.5,1,0],[0.75,1,0],[1,1,0],[0,0.25,0],[0,0.5,0],[0,0.75,0],[1,0.25,0],[1,0.5,0],[1,0.75,0]];outlineConnect=0;fontColor=#232F3E;gradientColor=#4D72F3;gradientDirection=north;fillColor=#3334B9;strokeColor=#ffffff;dashed=0;verticalLabelPosition=bottom;verticalAlign=top;align=center;html=1;fontSize=12;fontStyle=0;aspect=fixed;shape=mxgraph.aws4.resourceIcon;resIcon=mxgraph.aws4.rds;labelBackgroundColor=#ffffff;" parent="v8bomN9b3jaTFsUAjUa0-1" vertex="1">
          <mxGeometry x="31" y="34.5" width="78" height="78" as="geometry" />
        </mxCell>
        <mxCell id="v8bomN9b3jaTFsUAjUa0-5" value="Private subnet" style="points=[[0,0],[0.25,0],[0.5,0],[0.75,0],[1,0],[1,0.25],[1,0.5],[1,0.75],[1,1],[0.75,1],[0.5,1],[0.25,1],[0,1],[0,0.75],[0,0.5],[0,0.25]];outlineConnect=0;gradientColor=none;html=1;whiteSpace=wrap;fontSize=12;fontStyle=0;container=1;pointerEvents=0;collapsible=0;recursiveResize=0;shape=mxgraph.aws4.group;grIcon=mxgraph.aws4.group_security_group;grStroke=0;strokeColor=#147EBA;fillColor=#E6F2F8;verticalAlign=top;align=left;spacingLeft=30;fontColor=#147EBA;dashed=0;" parent="aqYKtT-z00j4YyioXfuS-1" vertex="1">
          <mxGeometry x="1139.13" y="761.75" width="140" height="140.5" as="geometry" />
        </mxCell>
        <mxCell id="v8bomN9b3jaTFsUAjUa0-6" value="EC2" style="points=[[0,0,0],[0.25,0,0],[0.5,0,0],[0.75,0,0],[1,0,0],[0,1,0],[0.25,1,0],[0.5,1,0],[0.75,1,0],[1,1,0],[0,0.25,0],[0,0.5,0],[0,0.75,0],[1,0.25,0],[1,0.5,0],[1,0.75,0]];outlineConnect=0;fontColor=#232F3E;gradientColor=#F78E04;gradientDirection=north;fillColor=#D05C17;strokeColor=#ffffff;dashed=0;verticalLabelPosition=bottom;verticalAlign=top;align=center;html=1;fontSize=12;fontStyle=0;aspect=fixed;shape=mxgraph.aws4.resourceIcon;resIcon=mxgraph.aws4.ec2;labelBackgroundColor=#ffffff;" parent="v8bomN9b3jaTFsUAjUa0-5" vertex="1">
          <mxGeometry x="33.87000000000012" y="34.75" width="78" height="78" as="geometry" />
        </mxCell>
        <mxCell id="v8bomN9b3jaTFsUAjUa0-7" value="Private subnet" style="points=[[0,0],[0.25,0],[0.5,0],[0.75,0],[1,0],[1,0.25],[1,0.5],[1,0.75],[1,1],[0.75,1],[0.5,1],[0.25,1],[0,1],[0,0.75],[0,0.5],[0,0.25]];outlineConnect=0;gradientColor=none;html=1;whiteSpace=wrap;fontSize=12;fontStyle=0;container=1;pointerEvents=0;collapsible=0;recursiveResize=0;shape=mxgraph.aws4.group;grIcon=mxgraph.aws4.group_security_group;grStroke=0;strokeColor=#147EBA;fillColor=#E6F2F8;verticalAlign=top;align=left;spacingLeft=30;fontColor=#147EBA;dashed=0;" parent="aqYKtT-z00j4YyioXfuS-1" vertex="1">
          <mxGeometry x="1298.38" y="761.75" width="140" height="139" as="geometry" />
        </mxCell>
        <mxCell id="v8bomN9b3jaTFsUAjUa0-8" value="RDS" style="points=[[0,0,0],[0.25,0,0],[0.5,0,0],[0.75,0,0],[1,0,0],[0,1,0],[0.25,1,0],[0.5,1,0],[0.75,1,0],[1,1,0],[0,0.25,0],[0,0.5,0],[0,0.75,0],[1,0.25,0],[1,0.5,0],[1,0.75,0]];outlineConnect=0;fontColor=#232F3E;gradientColor=#4D72F3;gradientDirection=north;fillColor=#3334B9;strokeColor=#ffffff;dashed=0;verticalLabelPosition=bottom;verticalAlign=top;align=center;html=1;fontSize=12;fontStyle=0;aspect=fixed;shape=mxgraph.aws4.resourceIcon;resIcon=mxgraph.aws4.rds;labelBackgroundColor=#ffffff;" parent="v8bomN9b3jaTFsUAjUa0-7" vertex="1">
          <mxGeometry x="31" y="34.75" width="78" height="78" as="geometry" />
        </mxCell>
        <mxCell id="_2oF79yjNBtKSoZfgYLh-2" style="edgeStyle=orthogonalEdgeStyle;rounded=0;orthogonalLoop=1;jettySize=auto;html=1;entryX=0.224;entryY=1.027;entryDx=0;entryDy=0;entryPerimeter=0;opacity=50;strokeWidth=3;endFill=1;exitX=1;exitY=0.5;exitDx=0;exitDy=0;exitPerimeter=0;" parent="aqYKtT-z00j4YyioXfuS-1" source="_2oF79yjNBtKSoZfgYLh-1" target="zit1sbZ7AsJ5WFsKgcYT-25" edge="1">
          <mxGeometry relative="1" as="geometry" />
        </mxCell>
        <mxCell id="_2oF79yjNBtKSoZfgYLh-3" style="edgeStyle=orthogonalEdgeStyle;rounded=0;orthogonalLoop=1;jettySize=auto;html=1;strokeWidth=3;opacity=50;" parent="aqYKtT-z00j4YyioXfuS-1" source="_2oF79yjNBtKSoZfgYLh-1" target="tWPi0qfJOfL9Z5YvMPex-3" edge="1">
          <mxGeometry relative="1" as="geometry" />
        </mxCell>
        <mxCell id="_2oF79yjNBtKSoZfgYLh-1" value="Direct Connect&lt;br&gt;(optional)" style="sketch=0;points=[[0,0,0],[0.25,0,0],[0.5,0,0],[0.75,0,0],[1,0,0],[0,1,0],[0.25,1,0],[0.5,1,0],[0.75,1,0],[1,1,0],[0,0.25,0],[0,0.5,0],[0,0.75,0],[1,0.25,0],[1,0.5,0],[1,0.75,0]];outlineConnect=0;fontColor=#232F3E;gradientColor=#945DF2;gradientDirection=north;fillColor=#5A30B5;strokeColor=#ffffff;dashed=0;verticalLabelPosition=bottom;verticalAlign=top;align=center;html=1;fontSize=12;fontStyle=0;aspect=fixed;shape=mxgraph.aws4.resourceIcon;resIcon=mxgraph.aws4.direct_connect;opacity=50;" parent="aqYKtT-z00j4YyioXfuS-1" vertex="1">
          <mxGeometry x="-208.96" y="874" width="78" height="78" as="geometry" />
        </mxCell>
        <mxCell id="aqYKtT-z00j4YyioXfuS-54" style="edgeStyle=orthogonalEdgeStyle;rounded=0;orthogonalLoop=1;jettySize=auto;html=1;endArrow=classic;endFill=1;strokeColor=#000000;strokeWidth=3;fillColor=#f8cecc;entryX=1;entryY=0.5;entryDx=0;entryDy=0;" parent="aqYKtT-z00j4YyioXfuS-1" target="c2jrxfSJ30ph8Sp1wg5w-7" edge="1">
          <mxGeometry relative="1" as="geometry">
            <mxPoint x="621" y="689" as="targetPoint" />
            <mxPoint x="839" y="878" as="sourcePoint" />
            <Array as="points">
              <mxPoint x="777" y="878" />
              <mxPoint x="777" y="878" />
            </Array>
          </mxGeometry>
        </mxCell>
        <mxCell id="VjTDC7WTQWD1o37_lHGb-1" value="association" style="edgeLabel;html=1;align=center;verticalAlign=middle;resizable=0;points=[];fontSize=14;" parent="aqYKtT-z00j4YyioXfuS-54" vertex="1" connectable="0">
          <mxGeometry x="-0.2062" y="-1" relative="1" as="geometry">
            <mxPoint x="-52" y="-1" as="offset" />
          </mxGeometry>
        </mxCell>
        <mxCell id="1VweFIOlZkuIM1G34YTw-28" style="edgeStyle=orthogonalEdgeStyle;rounded=0;orthogonalLoop=1;jettySize=auto;html=1;strokeColor=#000000;strokeWidth=3;fontSize=16;fontColor=#330000;endArrow=none;endFill=0;startArrow=classic;startFill=1;exitX=1;exitY=0.5;exitDx=0;exitDy=0;" parent="aqYKtT-z00j4YyioXfuS-1" source="zit1sbZ7AsJ5WFsKgcYT-12" target="1VweFIOlZkuIM1G34YTw-25" edge="1">
          <mxGeometry relative="1" as="geometry">
            <mxPoint x="618.75" y="1342" as="sourcePoint" />
            <mxPoint x="946.75" y="1188" as="targetPoint" />
            <Array as="points">
              <mxPoint x="722" y="1297" />
              <mxPoint x="722" y="1446" />
            </Array>
          </mxGeometry>
        </mxCell>
        <mxCell id="VjTDC7WTQWD1o37_lHGb-3" value="association" style="edgeLabel;html=1;align=center;verticalAlign=middle;resizable=0;points=[];fontSize=14;" parent="1VweFIOlZkuIM1G34YTw-28" vertex="1" connectable="0">
          <mxGeometry x="-0.4907" relative="1" as="geometry">
            <mxPoint x="-10" y="75" as="offset" />
          </mxGeometry>
        </mxCell>
        <mxCell id="So5kxv1gnNtd089I8MJj-0" value="&lt;font style=&quot;font-size: 14px;&quot;&gt;association&lt;/font&gt;" style="edgeLabel;html=1;align=center;verticalAlign=middle;resizable=0;points=[];" vertex="1" connectable="0" parent="aqYKtT-z00j4YyioXfuS-1">
          <mxGeometry x="-78.17218691672265" y="721.001850948764" as="geometry" />
        </mxCell>
        <mxCell id="So5kxv1gnNtd089I8MJj-1" value="&lt;font style=&quot;font-size: 14px;&quot;&gt;association&lt;/font&gt;" style="edgeLabel;html=1;align=center;verticalAlign=middle;resizable=0;points=[];" vertex="1" connectable="0" parent="aqYKtT-z00j4YyioXfuS-1">
          <mxGeometry x="-78.17218691672265" y="909.001850948764" as="geometry" />
        </mxCell>
      </root>
    </mxGraphModel>
  </diagram>
</mxfile>
